{"glyphs":{"0":{"ha":806,"x_min":49,"x_max":791,"o":"m 483 1015 q 608 989 551 1015 q 705 912 665 963 q 768 784 746 861 q 791 606 791 708 q 757 333 791 449 q 664 141 723 217 q 526 26 605 64 q 356 -11 447 -11 q 232 15 288 -11 q 134 91 175 40 q 71 219 94 142 q 49 398 49 296 q 83 670 49 554 q 176 863 117 786 q 314 977 235 940 q 483 1015 393 1015 m 378 126 q 472 156 428 126 q 548 244 516 185 q 599 392 581 303 q 618 602 618 481 q 605 733 618 680 q 570 818 592 785 q 520 864 549 850 q 461 877 492 877 q 367 848 411 877 q 291 760 324 819 q 240 611 259 701 q 222 401 222 522 q 234 271 222 324 q 269 186 247 218 q 319 140 291 154 q 378 126 348 126 z "},"1":{"ha":806,"x_min":147,"x_max":715,"o":"m 162 124 l 367 124 l 442 738 l 455 796 l 286 667 q 267 656 276 659 q 250 653 258 653 q 225 659 236 653 q 210 673 215 665 l 168 745 l 504 1006 l 641 1006 l 532 124 l 715 124 l 700 0 l 147 0 l 162 124 z "},"2":{"ha":806,"x_min":19,"x_max":774,"o":"m 496 1015 q 610 997 559 1015 q 698 946 662 978 q 755 867 735 913 q 774 764 774 820 q 755 649 774 701 q 703 551 736 597 q 626 460 670 504 q 531 371 581 417 l 272 135 q 337 149 305 144 q 398 154 369 154 l 665 154 q 703 141 690 154 q 717 106 717 128 q 717 102 717 105 q 716 90 717 100 q 712 59 715 80 q 704 0 709 38 l 19 0 l 26 55 q 37 90 28 71 q 63 124 46 108 l 408 431 q 494 515 458 476 q 555 591 531 553 q 591 666 579 628 q 603 747 603 704 q 567 842 603 809 q 469 875 531 875 q 410 866 438 875 q 360 842 383 858 q 321 803 338 826 q 293 755 304 781 q 266 718 283 729 q 227 707 250 707 q 205 709 217 707 l 120 724 q 176 850 140 796 q 261 941 212 905 q 370 996 310 978 q 496 1015 430 1015 z "},"3":{"ha":806,"x_min":53,"x_max":788,"o":"m 517 1015 q 631 997 581 1015 q 716 948 681 979 q 770 874 751 917 q 788 783 788 832 q 775 687 788 728 q 738 616 763 646 q 678 565 714 585 q 598 533 643 545 q 714 454 676 506 q 752 328 752 401 q 720 183 752 247 q 636 77 689 120 q 514 11 583 34 q 370 -11 445 -11 q 246 5 299 -11 q 154 53 192 20 q 91 135 115 85 q 53 253 67 185 l 131 283 q 170 292 151 292 q 200 285 188 292 q 217 264 213 278 q 243 204 228 229 q 278 161 258 178 q 324 136 298 144 q 385 128 351 128 q 471 144 433 128 q 534 189 508 161 q 573 251 560 216 q 587 324 587 287 q 578 377 587 353 q 544 418 569 401 q 478 445 520 435 q 369 455 435 455 l 385 572 q 495 585 449 573 q 569 620 540 597 q 610 675 597 643 q 623 749 623 708 q 587 843 623 811 q 490 875 551 875 q 381 842 426 875 q 313 755 335 808 q 287 718 303 729 q 249 707 271 707 q 226 709 239 707 l 142 724 q 197 850 160 796 q 282 941 233 905 q 390 996 331 978 q 517 1015 450 1015 z "},"4":{"ha":806,"x_min":21,"x_max":786,"o":"m 660 375 l 786 375 l 773 281 q 761 257 772 267 q 735 247 751 247 l 644 247 l 615 0 l 465 0 l 494 247 l 78 247 q 45 258 60 247 q 27 283 29 268 l 21 367 l 576 1005 l 737 1005 l 660 375 m 552 716 q 570 806 558 756 l 202 375 l 510 375 l 552 716 z "},"5":{"ha":806,"x_min":27,"x_max":767,"o":"m 759 933 q 730 876 755 899 q 651 854 704 854 l 371 854 l 306 636 q 429 649 372 649 q 558 629 503 649 q 649 573 613 609 q 705 489 686 538 q 723 383 723 440 q 708 273 723 325 q 666 177 693 221 q 601 98 639 133 q 516 39 563 63 q 417 2 470 15 q 306 -11 363 -11 q 217 -2 258 -11 q 142 24 176 8 q 78 61 107 40 q 27 105 49 82 l 86 176 q 108 193 96 188 q 131 198 119 198 q 165 187 149 198 q 204 163 182 176 q 256 139 226 150 q 332 128 287 128 q 427 146 385 128 q 497 196 469 164 q 541 270 526 228 q 556 362 556 313 q 512 473 556 431 q 381 514 469 514 q 312 508 349 514 q 231 490 275 502 l 132 519 l 275 1004 l 767 1004 l 759 933 z "},"6":{"ha":806,"x_min":58,"x_max":761,"o":"m 499 625 q 599 608 551 625 q 683 558 647 591 q 740 477 719 526 q 761 365 761 428 q 731 218 761 286 q 648 99 701 149 q 522 18 594 48 q 364 -11 449 -11 q 235 11 292 -11 q 139 73 178 33 q 79 169 99 113 q 58 292 58 225 q 68 380 58 337 q 98 465 78 422 q 148 551 118 508 q 217 640 178 594 l 499 964 q 538 992 513 981 q 592 1003 563 1003 l 739 1003 l 397 638 l 355 592 q 423 617 387 608 q 499 625 458 625 m 215 285 q 226 220 215 250 q 257 169 236 190 q 307 135 277 147 q 377 124 338 124 q 463 140 423 124 q 531 185 502 156 q 577 253 560 213 q 594 338 594 292 q 582 406 594 376 q 548 457 570 436 q 496 490 526 478 q 427 501 465 501 q 342 484 381 501 q 275 439 303 468 q 231 371 247 410 q 215 285 215 332 z "},"7":{"ha":806,"x_min":106,"x_max":842,"o":"m 842 1004 l 835 939 q 826 896 832 916 q 813 863 820 876 l 310 39 q 282 11 300 23 q 244 0 264 0 l 106 0 l 593 776 q 623 818 608 799 q 656 854 638 837 l 170 854 q 145 864 156 854 q 135 888 135 874 l 150 1004 l 842 1004 z "},"8":{"ha":806,"x_min":45,"x_max":768,"o":"m 360 -11 q 230 7 288 -11 q 131 60 172 26 q 67 141 90 94 q 45 247 45 189 q 98 422 45 351 q 260 524 151 492 q 168 600 199 551 q 138 714 138 649 q 164 833 138 778 q 237 928 190 888 q 347 992 283 969 q 485 1015 411 1015 q 602 996 550 1015 q 691 944 654 977 q 748 868 728 912 q 768 774 768 824 q 723 619 768 683 q 591 522 678 555 q 708 441 669 494 q 746 314 746 388 q 717 180 746 240 q 636 77 688 119 q 514 12 585 35 q 360 -11 443 -11 m 375 119 q 460 133 423 119 q 523 173 497 147 q 562 233 549 198 q 575 311 575 269 q 564 373 575 347 q 532 418 553 400 q 482 445 511 436 q 417 454 453 454 q 334 441 371 454 q 272 404 298 428 q 232 344 246 380 q 218 262 218 308 q 228 205 218 231 q 258 159 238 178 q 307 130 278 140 q 375 119 336 119 m 432 583 q 516 600 483 583 q 569 643 549 617 q 597 700 589 669 q 605 762 605 732 q 597 810 605 788 q 573 851 590 833 q 532 878 557 868 q 471 889 506 889 q 395 875 428 889 q 341 838 363 861 q 309 783 319 815 q 298 717 298 752 q 305 667 298 691 q 328 624 312 643 q 369 594 344 606 q 432 583 395 583 z "},"9":{"ha":806,"x_min":132,"x_max":810,"o":"m 378 402 q 285 418 329 402 q 206 466 240 434 q 152 544 172 497 q 132 652 132 590 q 161 793 132 727 q 242 908 190 859 q 363 986 293 958 q 515 1015 433 1015 q 640 993 585 1015 q 732 934 694 972 q 790 843 770 896 q 810 727 810 790 q 799 628 810 674 q 768 539 788 582 q 719 454 749 496 q 654 368 690 412 l 382 38 q 345 11 368 22 q 292 0 322 0 l 140 0 l 499 390 q 526 420 513 406 q 551 449 539 435 q 469 414 513 426 q 378 402 425 402 m 653 726 q 641 790 653 761 q 609 838 630 818 q 560 868 589 858 q 497 879 531 879 q 417 864 453 879 q 355 822 381 849 q 315 757 329 794 q 300 674 300 719 q 339 565 300 603 q 451 527 377 527 q 535 542 497 527 q 599 585 572 558 q 639 648 625 612 q 653 726 653 684 z "},"˛":{"ha":760,"x_min":29,"x_max":731,"o":"m 166 797 q 256 850 206 828 q 375 872 306 872 q 463 859 424 872 q 528 822 501 846 q 570 764 556 798 q 584 690 584 731 q 574 624 584 651 q 550 576 565 597 q 518 541 535 556 q 485 514 501 526 q 457 488 469 501 q 441 460 444 476 l 426 394 l 308 394 l 297 473 q 295 480 296 476 q 295 488 295 484 q 305 526 295 510 q 329 556 315 542 q 360 582 343 569 q 391 608 377 594 q 415 639 406 622 q 425 679 425 656 q 408 719 425 703 q 360 734 392 734 q 318 729 335 734 q 288 719 301 724 q 266 708 276 713 q 247 703 257 703 q 212 724 223 703 l 166 797 m 267 217 q 275 254 267 237 q 294 284 282 272 q 324 305 307 297 q 362 312 342 312 q 398 305 381 312 q 428 284 415 297 q 448 254 441 272 q 456 217 456 237 q 448 180 456 197 q 428 151 441 163 q 398 131 415 138 q 362 124 381 124 q 324 131 342 124 q 294 151 307 138 q 275 180 282 163 q 267 217 267 197 m 29 1004 l 731 1004 l 731 0 l 29 0 l 29 1004 m 74 48 l 681 48 l 681 957 l 74 957 l 74 48 z "},"\r":{"ha":0,"x_min":0,"x_max":0,"o":""},"\u0000":{"ha":0,"x_min":0,"x_max":0,"o":""}," ":{"ha":268,"x_min":0,"x_max":0,"o":""},"!":{"ha":464,"x_min":107,"x_max":393,"o":"m 393 1004 l 344 606 q 323 482 337 543 q 291 353 309 422 l 179 353 q 179 380 179 367 q 178 407 178 394 q 181 508 178 459 q 190 606 183 556 l 238 1004 l 393 1004 m 107 94 q 115 135 107 116 q 137 169 123 155 q 170 191 151 183 q 212 199 190 199 q 253 191 234 199 q 286 169 272 183 q 309 135 301 155 q 317 94 317 116 q 309 53 317 72 q 286 20 301 34 q 253 -2 272 6 q 212 -10 234 -10 q 170 -2 190 -10 q 137 20 151 6 q 115 53 123 34 q 107 94 107 72 z "},"\"":{"ha":544,"x_min":138,"x_max":546,"o":"m 306 1003 l 281 803 l 253 694 q 232 649 246 665 q 188 633 217 633 q 152 649 164 633 q 138 694 141 665 l 138 803 l 163 1003 l 306 1003 m 546 1003 l 521 803 l 493 694 q 471 649 485 665 q 428 633 457 633 q 392 649 403 633 q 377 694 381 665 l 377 803 l 402 1003 l 546 1003 z "},"#":{"ha":806,"x_min":22,"x_max":828,"o":"m 562 284 l 474 0 l 397 0 q 367 13 379 0 q 356 47 356 26 q 359 69 356 56 l 426 284 l 280 284 l 211 60 q 178 14 201 28 q 129 0 155 0 l 56 0 l 144 284 l 62 284 q 33 292 43 284 q 22 319 22 301 q 28 351 22 331 l 42 403 l 176 403 l 237 601 l 87 601 l 108 669 q 134 707 115 695 q 188 719 152 719 l 269 719 l 340 947 q 370 989 349 974 q 418 1003 392 1003 l 494 1003 l 404 719 l 550 719 l 639 1003 l 713 1003 q 747 992 734 1003 q 760 962 760 980 q 758 945 760 953 l 686 719 l 828 719 l 806 651 q 781 613 798 625 q 728 601 763 601 l 654 601 l 593 403 l 695 403 q 725 396 715 403 q 735 369 735 388 q 730 337 735 357 l 715 284 l 562 284 m 311 403 l 458 403 l 519 601 l 373 601 l 311 403 z "},"$":{"ha":806,"x_min":24,"x_max":798,"o":"m 282 -6 q 135 38 202 4 q 24 121 68 71 l 85 197 q 104 213 92 206 q 129 219 116 219 q 159 208 144 219 q 195 182 175 197 q 243 152 216 167 q 310 131 271 138 l 375 449 q 289 480 331 463 q 213 524 247 497 q 159 591 180 551 q 138 692 138 632 q 163 808 138 752 q 233 909 187 865 q 344 981 278 953 q 491 1013 409 1009 l 509 1101 q 526 1130 513 1117 q 559 1143 540 1143 l 620 1143 l 592 1007 q 714 966 665 995 q 798 898 764 936 l 751 838 q 730 817 740 824 q 706 810 720 810 q 682 817 696 810 q 652 834 669 824 q 613 853 635 844 q 564 869 591 863 l 503 575 q 563 555 533 565 q 620 531 593 544 q 671 500 648 517 q 712 460 694 483 q 739 408 729 438 q 749 342 749 379 q 724 212 749 274 q 651 103 699 151 q 536 26 604 56 q 384 -10 469 -4 l 363 -115 q 345 -143 359 -131 q 313 -156 331 -156 l 251 -156 l 282 -6 m 588 301 q 579 343 588 325 q 555 375 570 361 q 518 399 539 389 q 472 419 497 410 l 413 128 q 542 184 497 138 q 588 301 588 231 m 297 728 q 306 687 297 705 q 328 654 314 669 q 363 628 343 640 q 408 608 383 617 l 462 872 q 387 854 418 867 q 336 822 356 841 q 307 779 316 803 q 297 728 297 755 z "},"%":{"ha":1030,"x_min":42,"x_max":1028,"o":"m 523 799 q 501 679 523 732 q 445 589 480 626 q 365 532 410 551 q 274 512 320 512 q 197 527 232 512 q 138 569 163 542 q 100 636 114 597 q 87 724 87 676 q 106 844 87 790 q 159 935 126 897 q 239 993 193 972 q 335 1013 284 1013 q 412 998 377 1013 q 471 955 447 983 q 509 888 496 927 q 523 799 523 848 m 394 798 q 374 881 394 856 q 322 906 353 906 q 280 896 299 906 q 245 864 260 886 q 223 808 231 842 q 215 724 215 774 q 220 676 215 696 q 235 643 225 656 q 258 625 244 631 q 287 619 271 619 q 329 629 309 619 q 363 659 349 638 q 386 715 378 681 q 394 798 394 749 m 851 977 q 873 995 860 987 q 908 1003 886 1003 l 1028 1003 l 218 25 q 196 7 209 14 q 165 0 183 0 l 42 0 l 851 977 m 983 274 q 961 155 983 208 q 905 64 940 101 q 825 7 870 27 q 733 -12 780 -12 q 657 3 692 -12 q 598 45 622 18 q 560 112 574 73 q 547 199 547 151 q 566 320 547 266 q 619 411 585 374 q 698 469 653 449 q 795 490 744 490 q 872 474 837 490 q 931 431 906 459 q 969 363 956 403 q 983 274 983 324 m 855 274 q 834 357 855 332 q 782 381 813 381 q 739 371 759 381 q 705 339 719 361 q 682 283 690 317 q 674 199 674 249 q 694 119 674 143 q 747 94 715 94 q 789 104 769 94 q 824 134 809 113 q 847 190 838 156 q 855 274 855 224 z "},"&":{"ha":914,"x_min":28,"x_max":877,"o":"m 506 1015 q 601 999 558 1015 q 675 953 644 983 q 722 883 705 924 q 738 792 738 842 l 640 772 q 623 770 630 770 q 591 798 598 770 q 578 834 586 817 q 557 862 569 850 q 528 881 544 874 q 490 888 512 888 q 438 876 461 888 q 398 844 415 865 q 373 796 382 824 q 365 738 365 769 q 377 668 365 704 q 419 594 389 633 l 624 327 q 664 414 647 369 q 689 507 680 459 q 700 533 692 523 q 726 542 708 542 l 842 542 q 796 367 830 450 q 712 214 763 283 l 877 0 l 733 0 q 699 2 713 0 q 673 11 685 5 q 652 26 662 17 q 633 48 643 35 l 597 95 q 458 17 532 45 q 302 -11 383 -11 q 188 7 238 -11 q 101 57 137 24 q 47 137 66 90 q 28 242 28 184 q 45 343 28 296 q 93 431 63 391 q 164 503 123 471 q 253 557 206 535 q 221 644 231 601 q 210 726 210 687 q 231 838 210 785 q 290 930 252 890 q 383 992 328 969 q 506 1015 438 1015 m 199 265 q 234 159 199 197 q 338 121 270 121 q 433 141 388 121 q 519 196 479 160 l 314 467 q 225 375 252 427 q 199 265 199 324 z "},"'":{"ha":306,"x_min":138,"x_max":306,"o":"m 306 1003 l 281 803 l 253 694 q 232 649 246 665 q 188 633 217 633 q 152 649 164 633 q 138 694 140 665 l 138 803 l 163 1003 l 306 1003 z "},"(":{"ha":383,"x_min":65,"x_max":419,"o":"m 210 301 q 214 199 210 253 q 225 92 217 146 q 245 -13 233 38 q 274 -108 257 -64 q 278 -132 278 -120 q 270 -157 278 -147 q 251 -173 263 -166 l 172 -217 q 124 -94 144 -158 q 91 35 103 -30 q 72 164 78 100 q 65 288 65 228 q 78 489 65 392 q 122 684 91 587 q 203 881 152 781 q 332 1088 255 981 l 401 1044 q 414 1032 408 1039 q 419 1015 419 1025 q 417 999 419 1008 q 407 979 414 990 q 323 821 360 900 q 261 660 286 742 q 223 488 236 577 q 210 301 210 399 z "},")":{"ha":383,"x_min":-12,"x_max":342,"o":"m 197 571 q 193 672 197 619 q 182 780 190 726 q 162 884 174 833 q 133 979 150 935 q 128 1003 128 992 q 136 1028 128 1019 q 156 1044 144 1038 l 235 1088 q 283 965 263 1029 q 316 836 303 901 q 335 707 329 772 q 342 583 342 643 q 329 382 342 480 q 285 188 316 285 q 203 -9 255 90 q 75 -217 152 -109 l 6 -173 q -7 -160 -1 -167 q -12 -143 -12 -153 q -10 -127 -12 -136 q 0 -108 -7 -119 q 84 50 47 -28 q 146 212 121 129 q 184 383 171 294 q 197 571 197 472 z "},"*":{"ha":511,"x_min":91,"x_max":529,"o":"m 242 583 l 258 711 q 262 737 259 725 q 271 761 265 749 q 251 745 262 752 q 229 731 241 739 l 122 666 l 91 733 l 199 798 q 225 811 212 806 q 251 817 238 816 q 203 837 224 822 l 111 902 l 158 969 l 251 903 q 270 889 260 896 q 285 872 279 881 q 283 885 283 878 q 282 900 282 892 q 282 911 282 906 q 283 922 283 917 l 299 1051 l 378 1051 l 363 924 q 358 897 361 910 q 349 874 354 885 q 366 888 356 881 q 386 901 376 894 l 499 969 l 529 901 l 422 837 q 371 817 397 822 q 394 810 383 815 q 417 798 406 806 l 508 733 l 462 666 l 369 731 q 350 746 360 739 q 335 761 341 753 q 338 732 338 746 q 338 722 338 727 q 337 713 338 717 l 320 583 l 242 583 z "},"+":{"ha":806,"x_min":72,"x_max":764,"o":"m 527 814 l 492 528 l 764 528 l 749 405 l 477 405 l 442 117 l 307 117 l 342 405 l 72 405 l 88 528 l 358 528 l 393 814 l 527 814 z "},",":{"ha":313,"x_min":28,"x_max":233,"o":"m 28 106 q 35 142 28 125 q 56 172 42 159 q 87 192 69 185 q 128 199 106 199 q 174 190 154 199 q 207 164 194 181 q 226 127 219 148 q 233 82 233 106 q 223 12 233 49 q 193 -62 213 -25 q 145 -133 174 -99 q 79 -197 117 -168 l 49 -170 q 37 -145 37 -160 q 49 -121 37 -135 q 75 -90 60 -108 q 105 -49 90 -72 q 126 2 119 -26 q 86 10 103 2 q 55 32 68 18 q 35 65 42 46 q 28 106 28 83 z "},"-":{"ha":461,"x_min":65,"x_max":416,"o":"m 82 488 l 416 488 l 399 350 l 65 350 l 82 488 z "},".":{"ha":313,"x_min":24,"x_max":234,"o":"m 24 94 q 32 135 24 116 q 54 169 40 155 q 87 191 68 183 q 128 199 106 199 q 170 191 151 199 q 203 169 189 183 q 226 135 217 155 q 234 94 234 116 q 226 53 234 72 q 203 20 217 34 q 170 -2 189 6 q 128 -10 151 -10 q 87 -2 106 -10 q 54 20 68 6 q 32 53 40 34 q 24 94 24 72 z "},"/":{"ha":503,"x_min":-60,"x_max":589,"o":"m 105 -5 q 63 -51 90 -35 q 10 -67 35 -67 l -60 -67 l 428 952 q 466 995 442 981 q 519 1010 490 1010 l 589 1010 l 105 -5 z "},":":{"ha":313,"x_min":24,"x_max":302,"o":"m 24 94 q 32 135 24 116 q 54 169 40 155 q 87 191 68 183 q 128 199 106 199 q 170 191 151 199 q 203 169 189 183 q 226 135 217 155 q 234 94 234 116 q 226 53 234 72 q 203 20 217 34 q 170 -2 189 6 q 128 -10 151 -10 q 87 -2 106 -10 q 54 20 68 6 q 32 53 40 34 q 24 94 24 72 m 92 590 q 100 631 92 611 q 122 664 108 650 q 155 686 136 678 q 197 694 174 694 q 238 686 219 694 q 271 664 257 678 q 294 631 285 650 q 302 590 302 611 q 294 548 302 567 q 271 515 285 529 q 238 493 257 501 q 197 485 219 485 q 155 493 174 485 q 122 515 136 501 q 100 548 108 529 q 92 590 92 567 z "},";":{"ha":313,"x_min":24,"x_max":303,"o":"m 24 106 q 32 142 24 125 q 52 172 39 159 q 84 192 65 185 q 124 199 102 199 q 170 190 151 199 q 203 164 190 181 q 223 127 216 148 q 229 82 229 106 q 219 12 229 49 q 190 -62 209 -25 q 142 -133 170 -99 q 76 -197 113 -168 l 46 -170 q 33 -145 33 -160 q 45 -121 33 -135 q 72 -90 57 -108 q 101 -49 87 -72 q 122 2 116 -26 q 82 10 100 2 q 51 32 65 18 q 31 65 38 46 q 24 106 24 83 m 93 590 q 101 631 93 611 q 123 664 109 650 q 157 686 138 678 q 198 694 176 694 q 239 686 220 694 q 273 664 258 678 q 295 631 287 650 q 303 590 303 611 q 295 548 303 567 q 273 515 287 529 q 239 493 258 501 q 198 485 220 485 q 157 493 176 485 q 123 515 138 501 q 101 548 109 529 q 93 590 93 567 z "},"<":{"ha":741,"x_min":102,"x_max":696,"o":"m 110 503 l 696 790 l 681 667 q 671 642 679 653 q 645 622 663 631 l 377 493 q 341 479 360 485 q 303 468 323 473 q 339 457 322 463 q 371 443 356 451 l 608 313 q 627 296 622 306 q 633 275 633 287 q 632 272 633 274 q 630 256 632 269 q 625 218 628 244 q 617 146 622 192 l 102 433 l 110 503 z "},"=":{"ha":806,"x_min":88,"x_max":745,"o":"m 103 407 l 716 407 l 701 284 l 88 284 l 103 407 m 133 650 l 745 650 l 731 526 l 118 526 l 133 650 z "},">":{"ha":741,"x_min":78,"x_max":672,"o":"m 664 433 l 78 147 l 94 269 q 103 294 95 283 q 129 314 112 306 l 397 443 q 433 457 415 451 q 472 468 451 463 q 436 479 453 473 q 403 493 419 485 l 167 623 q 147 640 153 631 q 142 661 142 649 q 142 665 142 662 q 144 680 142 667 q 149 718 145 692 q 158 790 152 744 l 672 503 l 664 433 z "},"?":{"ha":542,"x_min":94,"x_max":578,"o":"m 94 913 q 147 952 119 933 q 207 984 175 970 q 276 1007 240 999 q 353 1015 313 1015 q 450 999 408 1015 q 520 956 492 983 q 563 893 549 929 q 578 815 578 856 q 569 737 578 771 q 544 677 560 703 q 510 631 529 651 q 469 594 490 611 q 427 562 448 577 q 387 531 406 547 q 355 497 369 515 q 335 456 341 479 l 307 353 l 193 353 l 193 467 q 210 528 193 501 q 253 578 227 556 q 309 623 279 601 q 365 667 339 644 q 408 719 391 691 q 425 783 425 747 q 399 855 425 828 q 323 881 374 881 q 261 872 288 881 q 217 852 235 863 q 185 832 198 841 q 160 823 172 823 q 142 828 150 823 q 129 844 133 833 l 94 913 m 127 94 q 135 135 127 116 q 157 169 143 155 q 190 191 171 183 q 232 199 210 199 q 273 191 254 199 q 307 169 292 183 q 329 135 321 155 q 338 94 338 116 q 329 53 338 72 q 307 20 321 34 q 273 -2 292 6 q 232 -10 254 -10 q 190 -2 210 -10 q 157 20 171 6 q 135 53 143 34 q 127 94 127 72 z "},"@":{"ha":1035,"x_min":42,"x_max":1021,"o":"m 709 128 q 634 150 665 128 q 595 221 603 172 q 506 150 551 171 q 412 128 461 128 q 351 141 376 128 q 308 176 325 153 q 282 228 290 198 q 274 293 274 258 q 285 380 274 335 q 318 465 296 424 q 372 543 340 507 q 447 607 404 580 q 541 651 489 635 q 656 667 594 667 q 702 665 681 667 q 741 659 723 663 q 775 649 759 655 q 807 636 791 644 l 713 379 q 697 325 701 348 q 693 285 693 301 q 708 242 693 253 q 745 231 722 231 q 805 254 776 231 q 855 319 833 278 q 890 418 877 361 q 903 542 903 475 q 882 675 903 617 q 822 772 861 733 q 727 831 783 811 q 602 851 671 851 q 484 833 541 851 q 379 782 428 815 q 291 702 331 749 q 222 597 251 655 q 178 470 194 538 q 163 328 163 403 q 189 161 163 233 q 262 40 215 89 q 375 -34 309 -9 q 521 -60 441 -60 q 613 -54 570 -60 q 691 -39 656 -49 q 753 -18 726 -30 q 801 6 781 -6 q 819 13 810 11 q 834 15 827 15 q 856 7 849 15 q 867 -13 864 -1 l 880 -60 q 715 -137 808 -108 q 508 -167 623 -167 q 317 -133 403 -167 q 170 -35 231 -99 q 76 119 109 28 q 42 322 42 209 q 63 489 42 408 q 122 641 84 570 q 212 770 159 712 q 328 869 265 828 q 465 934 392 911 q 615 957 538 957 q 773 928 699 957 q 902 845 847 899 q 989 715 957 792 q 1021 542 1021 638 q 996 379 1021 454 q 929 248 972 303 q 830 160 887 192 q 709 128 774 128 m 458 235 q 491 241 474 235 q 524 262 508 247 q 556 301 540 276 q 585 363 571 326 l 656 560 q 616 564 638 564 q 536 542 574 564 q 468 485 497 521 q 420 405 438 450 q 403 311 403 359 q 417 256 403 276 q 458 235 431 235 z "},"A":{"ha":891,"x_min":-50,"x_max":859,"o":"m 859 0 l 719 0 q 682 11 696 0 q 665 41 668 22 l 623 251 l 249 251 l 156 41 q 131 13 148 25 q 92 0 113 0 l -50 0 l 435 1004 l 619 1004 l 859 0 m 305 378 l 597 378 l 529 722 q 518 774 524 747 q 508 837 513 802 q 482 773 494 802 q 458 721 469 743 l 305 378 z "},"B":{"ha":833,"x_min":49,"x_max":808,"o":"m 49 0 l 172 1004 l 494 1004 q 637 988 578 1004 q 734 942 697 972 q 790 869 772 912 q 808 775 808 827 q 797 693 808 732 q 761 620 785 653 q 699 560 737 587 q 610 517 662 534 q 737 447 695 495 q 778 324 778 399 q 753 195 778 255 q 678 93 727 136 q 560 25 630 49 q 402 0 490 0 l 49 0 m 283 442 l 246 140 l 416 140 q 499 153 465 140 q 557 191 534 167 q 590 248 579 215 q 601 322 601 282 q 566 410 601 377 q 452 442 531 442 l 283 442 m 298 567 l 431 567 q 575 610 524 567 q 625 744 625 654 q 589 836 625 808 q 478 865 553 865 l 335 865 l 298 567 z "},"C":{"ha":838,"x_min":51,"x_max":885,"o":"m 471 142 q 545 148 513 142 q 600 165 576 155 q 640 187 623 176 q 669 209 656 199 q 691 226 681 219 q 710 233 701 233 q 724 229 719 233 q 733 222 730 226 l 797 144 q 643 29 731 69 q 440 -11 555 -11 q 276 22 348 -11 q 153 113 203 55 q 77 251 103 172 q 51 426 51 331 q 70 590 51 513 q 124 733 89 667 q 207 851 158 799 q 315 940 256 903 q 442 996 374 976 q 585 1015 510 1015 q 685 1005 640 1015 q 767 977 730 995 q 833 934 803 959 q 885 877 862 908 l 823 802 q 807 788 816 794 q 783 781 797 781 q 754 794 768 781 q 719 821 740 806 q 664 849 698 836 q 576 861 631 861 q 442 832 503 861 q 334 747 380 802 q 262 615 288 692 q 236 441 236 538 q 254 315 236 371 q 303 221 272 260 q 377 162 334 183 q 471 142 420 142 z "},"D":{"ha":954,"x_min":49,"x_max":940,"o":"m 940 569 q 900 340 940 444 q 788 159 860 235 q 617 42 716 84 q 402 0 519 0 l 49 0 l 172 1004 l 526 1004 q 699 972 622 1004 q 829 881 776 939 q 911 744 883 824 q 940 569 940 664 m 756 565 q 739 688 756 633 q 691 781 722 742 q 613 840 659 819 q 508 861 567 861 l 335 861 l 247 144 l 420 144 q 558 173 496 144 q 664 257 619 202 q 732 389 708 311 q 756 565 756 467 z "},"E":{"ha":730,"x_min":49,"x_max":758,"o":"m 758 1004 l 740 860 l 335 860 l 301 575 l 618 575 l 601 437 l 283 437 l 247 144 l 653 144 l 635 0 l 49 0 l 172 1004 l 758 1004 z "},"F":{"ha":717,"x_min":49,"x_max":758,"o":"m 740 860 l 335 860 l 298 555 l 639 555 l 620 411 l 281 411 l 230 0 l 49 0 l 172 1004 l 758 1004 l 740 860 z "},"G":{"ha":922,"x_min":51,"x_max":920,"o":"m 491 133 q 590 143 547 133 q 673 174 633 154 l 697 365 l 585 365 q 561 373 569 365 q 552 394 552 381 l 564 501 l 876 501 l 826 97 q 662 15 750 42 q 460 -11 574 -11 q 293 22 368 -11 q 164 115 217 56 q 81 256 110 174 q 51 434 51 338 q 70 595 51 519 q 123 735 89 671 q 206 852 158 800 q 314 940 254 903 q 444 996 374 976 q 590 1015 513 1015 q 701 1005 651 1015 q 791 975 751 994 q 863 931 831 956 q 920 878 895 906 l 862 803 q 817 779 843 779 q 787 789 801 779 q 742 817 764 804 q 697 840 721 831 q 643 856 672 850 q 576 861 615 861 q 439 831 501 861 q 331 745 376 801 q 261 613 286 690 q 236 440 236 535 q 255 311 236 368 q 306 215 273 254 q 386 154 340 175 q 491 133 433 133 z "},"H":{"ha":967,"x_min":49,"x_max":958,"o":"m 833 0 l 652 0 l 706 441 l 284 441 l 230 0 l 49 0 l 172 1004 l 353 1004 l 299 569 l 722 569 l 776 1004 l 958 1004 l 833 0 z "},"I":{"ha":403,"x_min":69,"x_max":373,"o":"m 250 0 l 69 0 l 192 1004 l 373 1004 l 250 0 z "},"J":{"ha":557,"x_min":-19,"x_max":548,"o":"m 467 348 q 430 198 457 265 q 359 85 403 131 q 256 14 316 39 q 121 -11 197 -11 q 50 -7 84 -11 q -19 8 17 -2 l -6 113 q 5 138 -4 128 q 31 147 13 147 q 68 142 47 147 q 122 138 89 138 q 181 149 153 138 q 229 184 208 160 q 265 248 251 209 q 287 344 280 288 l 367 1004 l 548 1004 l 467 348 z "},"K":{"ha":896,"x_min":53,"x_max":946,"o":"m 304 580 l 343 580 q 384 587 367 580 q 415 611 401 594 l 706 965 q 744 996 724 988 q 791 1004 764 1004 l 946 1004 l 590 584 q 559 552 574 565 q 528 531 544 539 q 564 508 549 523 q 591 470 578 494 l 846 0 l 688 0 q 660 2 672 0 q 641 9 649 5 q 628 20 633 14 q 619 35 623 27 l 412 410 q 387 436 402 428 q 342 444 372 444 l 288 444 l 233 0 l 53 0 l 176 1005 l 357 1005 l 304 580 z "},"L":{"ha":661,"x_min":49,"x_max":612,"o":"m 247 149 l 612 149 l 594 0 l 49 0 l 172 1004 l 352 1004 l 247 149 z "},"M":{"ha":1191,"x_min":49,"x_max":1182,"o":"m 573 401 q 584 365 579 383 q 594 326 589 346 q 612 365 602 346 q 633 401 622 383 l 981 975 q 994 991 988 985 q 1008 1000 1001 997 q 1024 1003 1015 1003 q 1045 1004 1033 1004 l 1182 1004 l 1058 0 l 900 0 l 981 654 q 987 694 983 672 q 996 738 991 715 l 651 164 q 621 135 639 144 q 583 125 603 125 l 558 125 q 521 135 537 125 q 499 164 506 144 l 292 735 q 290 694 291 714 q 287 657 289 674 l 208 0 l 49 0 l 172 1004 l 308 1004 q 328 1003 319 1004 q 344 1000 338 1003 q 356 991 351 997 q 365 975 361 985 l 573 401 l 573 401 z "},"N":{"ha":967,"x_min":49,"x_max":958,"o":"m 267 1004 q 286 1003 278 1004 q 301 999 294 1002 q 312 990 307 996 q 322 975 317 985 l 713 290 q 716 329 715 310 q 720 365 718 348 l 799 1004 l 958 1004 l 833 0 l 741 0 q 706 7 720 0 q 681 31 691 13 l 292 717 q 290 684 291 700 q 287 655 288 669 l 208 0 l 49 0 l 172 1004 l 267 1004 l 267 1004 z "},"O":{"ha":1017,"x_min":51,"x_max":1004,"o":"m 1004 569 q 986 411 1004 486 q 933 271 967 335 q 850 154 899 206 q 742 65 802 102 q 612 9 682 28 q 465 -11 542 -11 q 292 23 369 -11 q 162 117 216 57 q 80 258 108 176 q 51 434 51 339 q 70 593 51 517 q 123 733 88 668 q 205 849 157 797 q 314 939 253 901 q 444 995 374 976 q 592 1015 514 1015 q 764 981 688 1015 q 894 888 840 947 q 976 746 947 828 q 1004 569 1004 665 m 819 565 q 802 689 819 633 q 753 784 785 744 q 674 845 721 824 q 569 867 628 867 q 433 836 494 867 q 328 749 372 806 q 260 614 284 693 q 236 438 236 535 q 253 315 236 370 q 301 220 269 259 q 380 159 333 181 q 485 138 426 138 q 622 169 560 138 q 728 255 684 199 q 795 389 772 310 q 819 565 819 468 z "},"P":{"ha":802,"x_min":53,"x_max":808,"o":"m 276 356 l 233 0 l 53 0 l 176 1004 l 482 1004 q 629 984 567 1004 q 730 926 690 963 q 789 839 769 890 q 808 728 808 789 q 782 580 808 648 q 706 461 757 511 q 580 384 656 412 q 402 356 503 356 l 276 356 m 340 865 l 294 496 l 420 496 q 512 512 473 496 q 576 557 551 528 q 614 625 602 585 q 626 713 626 665 q 617 775 626 747 q 587 823 607 803 q 536 854 567 843 q 465 865 506 865 l 340 865 z "},"Q":{"ha":1017,"x_min":51,"x_max":1004,"o":"m 1004 569 q 987 417 1004 490 q 938 281 970 344 q 861 166 906 218 q 760 77 817 115 l 961 -197 l 814 -197 q 757 -189 781 -197 q 715 -156 732 -181 l 599 6 q 534 -7 567 -2 q 465 -11 500 -11 q 292 23 369 -11 q 162 117 216 57 q 80 258 108 176 q 51 434 51 339 q 70 593 51 517 q 123 733 88 668 q 205 849 157 797 q 314 939 253 901 q 444 995 374 976 q 592 1015 514 1015 q 764 981 688 1015 q 894 888 840 947 q 976 746 947 828 q 1004 569 1004 665 m 819 565 q 802 689 819 633 q 753 784 785 744 q 674 845 721 824 q 569 867 628 867 q 433 836 494 867 q 328 749 372 806 q 260 614 284 693 q 236 438 236 535 q 253 315 236 370 q 301 220 269 259 q 380 159 333 181 q 485 138 426 138 q 622 169 560 138 q 728 255 684 199 q 795 389 772 310 q 819 565 819 468 z "},"R":{"ha":840,"x_min":53,"x_max":789,"o":"m 281 396 l 233 0 l 53 0 l 176 1004 l 462 1004 q 610 986 549 1004 q 712 934 672 967 q 770 856 751 901 q 789 755 789 810 q 773 645 789 697 q 726 553 756 594 q 651 480 695 511 q 550 431 606 449 q 579 408 566 422 q 602 374 592 394 l 781 0 l 619 0 q 581 9 597 0 q 558 36 565 19 l 410 362 q 390 388 402 380 q 352 396 378 396 l 281 396 m 340 865 l 297 524 l 401 524 q 495 540 456 524 q 559 583 534 556 q 597 647 585 610 q 610 726 610 684 q 569 828 610 792 q 445 865 529 865 l 340 865 z "},"S":{"ha":687,"x_min":-7,"x_max":703,"o":"m 649 824 q 630 803 640 810 q 606 797 620 797 q 578 808 592 797 q 543 832 563 819 q 495 857 523 846 q 429 868 468 868 q 362 857 391 868 q 313 826 333 846 q 283 781 293 807 q 273 724 273 754 q 289 670 273 692 q 332 633 306 649 q 392 605 358 617 q 461 578 426 592 q 531 547 497 565 q 591 502 565 528 q 634 439 617 476 q 650 349 650 401 q 625 210 650 275 q 552 95 599 144 q 436 18 504 47 q 284 -11 369 -11 q 198 -2 240 -11 q 118 25 156 8 q 49 67 81 42 q -7 121 17 91 l 57 207 q 76 223 65 217 q 100 229 88 229 q 122 222 111 229 q 145 205 133 215 q 173 183 158 195 q 208 161 188 171 q 251 144 227 151 q 308 137 276 137 q 431 181 386 137 q 475 304 475 226 q 459 361 475 339 q 417 399 443 383 q 357 425 390 414 q 289 450 324 437 q 220 480 253 463 q 160 523 187 497 q 118 589 134 550 q 102 685 102 628 q 126 809 102 749 q 194 914 150 869 q 302 987 239 960 q 446 1015 366 1015 q 525 1006 487 1015 q 595 983 563 998 q 655 946 628 967 q 703 899 683 925 l 649 824 z "},"T":{"ha":761,"x_min":78,"x_max":828,"o":"m 828 1004 l 809 856 l 534 856 l 428 0 l 249 0 l 354 856 l 78 856 l 97 1004 l 828 1004 z "},"U":{"ha":929,"x_min":83,"x_max":933,"o":"m 441 144 q 530 163 490 144 q 601 215 571 181 q 652 296 632 249 q 678 401 672 343 l 753 1004 l 933 1004 l 859 401 q 812 236 848 312 q 719 106 776 160 q 587 20 663 51 q 422 -11 512 -11 q 278 14 341 -11 q 171 85 215 40 q 105 195 128 131 q 83 335 83 258 q 87 401 83 366 l 160 1004 l 340 1004 l 266 401 q 264 376 265 388 q 263 351 263 363 q 275 266 263 304 q 309 201 286 228 q 365 159 331 174 q 441 144 398 144 z "},"V":{"ha":914,"x_min":84,"x_max":993,"o":"m 84 1004 l 228 1004 q 266 993 252 1004 q 283 963 280 981 l 417 338 q 431 272 424 305 q 442 201 437 239 q 469 273 454 239 q 497 338 483 308 l 783 963 q 807 991 790 978 q 847 1004 825 1004 l 993 1004 l 497 0 l 333 0 l 84 1004 z "},"W":{"ha":1342,"x_min":89,"x_max":1417,"o":"m 89 1004 l 231 1004 q 268 993 254 1004 q 285 963 283 981 l 374 347 q 378 299 377 325 q 381 245 379 274 q 417 347 399 302 l 667 963 q 691 991 674 978 q 731 1004 709 1004 l 773 1004 q 811 993 797 1004 q 829 963 826 981 l 929 347 q 936 300 933 325 q 940 248 939 275 q 956 300 948 275 q 972 347 963 326 l 1210 963 q 1234 992 1216 979 q 1275 1004 1253 1004 l 1417 1004 l 1007 0 l 844 0 l 731 696 q 726 725 728 709 q 722 758 724 740 q 711 725 717 740 q 699 696 705 709 l 415 0 l 253 0 l 89 1004 z "},"X":{"ha":876,"x_min":-51,"x_max":927,"o":"m 337 536 l 111 1004 l 274 1004 q 300 999 292 1004 q 314 981 308 994 l 468 635 q 485 664 475 649 l 698 979 q 739 1004 715 1004 l 927 1004 l 585 544 l 838 0 l 676 0 q 648 10 658 0 q 633 31 638 19 l 458 433 q 452 422 455 428 q 445 411 449 417 l 185 31 q 160 7 174 14 q 129 0 146 0 l -51 0 l 337 536 z "},"Y":{"ha":842,"x_min":76,"x_max":929,"o":"m 517 391 l 469 0 l 288 0 l 337 392 l 76 1004 l 236 1004 q 272 993 260 1004 q 292 963 285 981 l 422 616 q 437 567 431 591 q 447 520 443 543 q 471 567 458 543 q 500 616 484 590 l 716 963 q 741 992 726 979 q 780 1004 757 1004 l 929 1004 l 517 391 z "},"Z":{"ha":787,"x_min":-5,"x_max":836,"o":"m 836 1004 l 828 948 q 822 926 827 936 q 808 905 816 915 l 253 144 l 719 144 l 701 0 l -5 0 l 2 55 q 9 77 3 67 q 22 98 14 88 l 578 860 l 132 860 l 149 1004 l 836 1004 z "},"[":{"ha":383,"x_min":3,"x_max":426,"o":"m 3 -212 l 160 1073 l 426 1073 l 419 1008 q 403 978 417 991 q 370 966 389 966 l 286 966 l 153 -106 l 240 -106 q 266 -114 255 -106 q 277 -138 277 -123 l 269 -212 l 3 -212 z "},"\\":{"ha":501,"x_min":72,"x_max":457,"o":"m 72 1010 l 142 1010 q 192 995 172 1010 q 219 952 213 980 l 457 -67 l 388 -67 q 338 -51 361 -67 q 307 -5 315 -35 l 72 1010 z "},"]":{"ha":383,"x_min":-22,"x_max":403,"o":"m -22 -212 l -13 -148 q 2 -118 -11 -130 q 35 -106 16 -106 l 120 -106 l 252 966 l 167 966 q 139 977 149 966 q 128 1003 128 988 l 137 1073 l 403 1073 l 244 -212 l -22 -212 z "},"^":{"ha":806,"x_min":122,"x_max":751,"o":"m 751 540 l 626 540 q 600 548 610 540 q 583 568 590 556 l 473 769 q 454 806 463 788 q 439 841 445 824 q 426 805 433 823 q 408 769 418 788 l 300 568 q 283 548 294 556 q 254 540 272 540 l 122 540 l 381 1004 l 492 1004 l 751 540 z "},"_":{"ha":504,"x_min":-67,"x_max":450,"o":"m 450 -96 l 437 -203 l -67 -203 l -54 -96 l 450 -96 z "},"`":{"ha":410,"x_min":25,"x_max":308,"o":"m 181 1015 q 219 1006 207 1015 q 238 978 231 997 l 308 810 l 213 810 q 184 815 195 810 q 163 833 172 819 l 25 1015 l 181 1015 z "},"a":{"ha":719,"x_min":26,"x_max":682,"o":"m 596 0 l 506 0 q 462 15 474 0 q 449 51 449 29 l 455 149 q 349 32 408 75 q 219 -10 290 -10 q 143 6 178 -10 q 82 53 108 22 q 41 132 56 85 q 26 244 26 180 q 42 368 26 308 q 88 482 58 428 q 159 579 117 535 q 252 656 201 624 q 364 705 304 688 q 491 723 424 723 q 587 716 539 723 q 682 691 635 709 l 596 0 m 286 130 q 342 149 315 130 q 394 203 369 169 q 439 284 418 238 q 475 384 460 331 l 502 599 q 467 601 483 601 q 360 575 410 601 q 275 504 311 549 q 218 400 239 459 q 198 274 198 340 q 222 165 198 199 q 286 130 245 130 z "},"b":{"ha":747,"x_min":42,"x_max":717,"o":"m 42 0 l 167 1032 l 335 1032 l 278 572 q 390 683 328 642 q 521 724 451 724 q 602 707 565 724 q 664 658 638 691 q 703 576 690 626 q 717 458 717 526 q 705 340 717 398 q 669 229 692 281 q 615 133 647 177 q 544 58 583 90 q 461 8 506 26 q 370 -10 417 -10 q 273 11 315 -10 q 201 71 230 33 l 195 47 q 176 11 190 22 q 135 0 163 0 l 42 0 m 454 589 q 397 569 426 589 q 340 516 367 550 q 289 436 313 482 q 249 337 266 390 l 228 167 q 283 131 252 141 q 343 120 313 120 q 426 149 389 120 q 491 223 464 177 q 532 326 517 269 q 547 441 547 383 q 522 552 547 516 q 454 589 498 589 z "},"c":{"ha":605,"x_min":35,"x_max":618,"o":"m 582 126 q 514 61 547 88 q 449 19 482 35 q 378 -4 415 3 q 298 -10 342 -10 q 187 11 236 -10 q 104 71 138 32 q 52 165 70 110 q 35 287 35 219 q 63 452 35 374 q 140 591 90 531 q 259 687 190 651 q 409 723 328 723 q 530 698 480 723 q 618 623 579 673 l 563 558 q 549 546 557 551 q 531 541 541 541 q 510 548 519 541 q 487 564 500 556 q 455 580 474 572 q 406 587 436 587 q 330 565 366 587 q 266 504 294 544 q 223 409 239 465 q 206 286 206 353 q 241 165 206 208 q 335 122 276 122 q 400 134 374 122 q 444 159 426 145 q 477 184 463 172 q 508 195 491 195 q 524 191 516 195 q 538 179 532 186 l 582 126 l 582 126 z "},"d":{"ha":749,"x_min":30,"x_max":747,"o":"m 528 0 q 485 15 497 0 q 472 51 472 29 l 478 156 q 363 34 426 79 q 226 -10 299 -10 q 145 6 182 -10 q 83 55 109 22 q 44 138 58 88 q 30 256 30 188 q 42 374 30 316 q 78 484 55 432 q 132 580 101 536 q 203 656 164 624 q 286 706 242 688 q 377 724 330 724 q 464 706 425 724 q 532 659 503 689 l 578 1032 l 747 1032 l 619 0 l 528 0 m 293 124 q 350 143 321 124 q 406 196 379 163 q 457 275 433 230 q 497 374 480 321 l 518 547 q 464 583 494 572 q 404 593 433 593 q 321 565 358 593 q 257 490 283 536 q 215 387 230 444 q 201 272 201 330 q 225 161 201 197 q 293 124 249 124 z "},"e":{"ha":657,"x_min":34,"x_max":638,"o":"m 638 547 q 618 460 638 499 q 550 389 599 420 q 416 335 501 358 q 201 299 332 313 l 201 290 q 344 122 201 122 q 398 128 374 122 q 439 142 422 134 q 471 161 457 151 q 498 180 485 172 q 522 194 510 188 q 547 200 533 200 q 564 196 556 200 q 578 185 572 192 l 622 132 q 549 68 585 95 q 477 24 514 41 q 399 -2 440 6 q 310 -10 358 -10 q 197 11 247 -10 q 110 70 146 32 q 54 164 74 109 q 34 285 34 218 q 46 396 34 342 q 81 499 58 450 q 138 588 104 547 q 213 659 171 629 q 305 706 255 689 q 413 722 356 722 q 511 706 469 722 q 582 665 553 690 q 624 608 610 640 q 638 547 638 577 m 403 603 q 339 589 369 603 q 285 549 309 574 q 243 487 261 523 q 215 409 226 451 q 354 435 301 421 q 435 465 406 449 q 473 501 464 482 q 483 541 483 519 q 478 563 483 551 q 464 582 474 574 q 440 597 455 591 q 403 603 425 603 z "},"f":{"ha":442,"x_min":40,"x_max":523,"o":"m 300 584 l 233 29 l 197 -101 q 167 -153 188 -135 q 109 -172 147 -172 l 40 -172 l 131 584 l 76 594 q 51 605 61 597 q 42 630 42 614 q 42 633 42 631 q 43 642 42 635 q 45 664 44 649 q 51 706 47 679 l 147 706 l 153 759 q 185 869 160 820 q 248 951 210 917 q 335 1003 285 985 q 441 1022 384 1022 q 523 1008 485 1022 l 508 919 q 501 907 506 912 q 488 901 496 903 q 471 898 481 899 q 452 897 462 897 q 401 890 424 897 q 360 865 378 882 q 331 820 342 848 q 315 753 319 793 l 309 706 l 469 706 l 453 584 l 300 584 z "},"g":{"ha":674,"x_min":-49,"x_max":705,"o":"m 597 506 q 590 449 597 474 q 573 402 583 424 q 551 361 563 381 q 529 323 540 342 q 512 281 519 303 q 506 233 506 259 q 517 180 506 204 q 543 131 529 156 q 569 78 557 106 q 581 12 581 49 q 557 -89 581 -41 q 489 -172 533 -136 q 381 -228 444 -208 q 236 -249 317 -249 q 118 -236 170 -249 q 28 -198 65 -222 q -29 -141 -9 -174 q -49 -68 -49 -108 q -19 31 -49 -9 q 58 96 11 72 q 164 132 106 121 q 281 142 223 142 q 337 140 310 142 q 388 133 364 138 q 384 156 385 144 q 382 179 382 167 q 404 268 382 219 q 344 240 378 250 q 264 231 311 231 q 187 244 224 231 q 123 284 151 257 q 79 352 95 311 q 63 447 63 392 q 82 548 63 499 q 140 637 101 598 q 234 700 178 676 q 365 724 290 724 q 440 714 404 724 q 506 687 476 705 l 705 687 l 697 631 q 686 603 694 615 q 663 587 678 591 l 590 567 q 595 538 594 553 q 597 506 597 523 m 313 334 q 367 349 344 334 q 407 387 391 363 q 432 440 424 410 q 440 500 440 469 q 416 580 440 552 q 345 608 392 608 q 290 594 314 608 q 251 558 267 581 q 227 506 235 535 q 219 446 219 477 q 243 363 219 392 q 313 334 267 334 m 424 -3 q 423 16 424 7 q 421 34 422 26 q 352 43 383 40 q 292 46 320 46 q 211 38 245 46 q 156 18 178 31 q 124 -11 134 6 q 114 -47 114 -28 q 147 -110 114 -88 q 250 -131 181 -131 q 321 -122 289 -131 q 376 -94 353 -112 q 411 -53 399 -77 q 424 -3 424 -30 z "},"h":{"ha":753,"x_min":42,"x_max":698,"o":"m 42 0 l 167 1032 l 338 1032 l 285 591 q 398 691 337 658 q 522 724 458 724 q 594 709 562 724 q 650 668 627 695 q 685 600 673 640 q 698 508 698 560 q 697 482 698 495 q 694 453 696 468 l 641 0 l 469 0 l 523 453 q 525 477 524 466 q 526 498 526 488 q 509 564 526 544 q 456 584 492 584 q 401 569 430 584 q 347 527 373 554 q 297 460 320 499 q 258 374 274 422 l 213 0 l 42 0 z "},"i":{"ha":358,"x_min":51,"x_max":349,"o":"m 306 713 l 221 0 l 51 0 l 137 713 l 306 713 m 349 920 q 340 878 349 898 q 316 844 331 859 q 281 821 301 830 q 241 813 262 813 q 202 821 221 813 q 168 844 183 830 q 145 878 153 859 q 136 920 136 898 q 145 963 136 942 q 169 998 154 983 q 202 1021 183 1013 q 242 1030 222 1030 q 282 1021 263 1030 q 316 998 301 1013 q 340 963 331 983 q 349 920 349 943 z "},"j":{"ha":351,"x_min":-109,"x_max":344,"o":"m 306 713 l 216 -24 q 193 -112 210 -71 q 145 -184 175 -153 q 74 -232 116 -215 q -23 -250 32 -250 q -70 -247 -50 -250 q -109 -237 -90 -244 l -92 -144 q -79 -127 -88 -131 q -47 -123 -70 -123 q -7 -118 -23 -123 q 21 -101 10 -112 q 38 -71 32 -90 q 48 -24 44 -52 l 138 713 l 306 713 m 344 920 q 334 878 344 898 q 310 844 325 859 q 276 821 295 830 q 235 813 256 813 q 196 821 215 813 q 163 844 177 830 q 139 878 148 859 q 131 920 131 898 q 140 963 131 942 q 163 998 149 983 q 197 1021 178 1013 q 236 1030 216 1030 q 276 1021 257 1030 q 311 998 296 1013 q 335 963 326 983 q 344 920 344 943 z "},"k":{"ha":708,"x_min":43,"x_max":732,"o":"m 339 1032 l 267 441 l 284 441 q 310 446 300 441 q 331 464 320 451 l 520 683 q 546 705 533 697 q 579 713 559 713 l 732 713 l 497 448 q 471 421 484 433 q 443 400 458 409 q 465 376 456 390 q 482 346 474 362 l 658 0 l 510 0 q 479 7 491 0 q 458 31 467 14 l 320 301 q 303 322 312 317 q 275 326 294 326 l 252 326 l 213 0 l 43 0 l 169 1032 l 339 1032 z "},"l":{"ha":347,"x_min":45,"x_max":339,"o":"m 45 0 l 170 1032 l 339 1032 l 214 0 l 45 0 z "},"m":{"ha":1098,"x_min":36,"x_max":1042,"o":"m 36 0 l 123 713 l 210 713 q 251 701 236 713 q 267 661 267 688 q 267 659 267 660 q 266 650 267 658 q 265 625 266 642 q 263 579 265 609 q 367 688 311 652 q 485 724 424 724 q 589 680 551 724 q 633 553 626 636 q 743 682 683 641 q 876 724 804 724 q 999 670 956 724 q 1042 515 1042 616 q 1042 485 1042 501 q 1039 453 1041 469 l 985 0 l 816 0 q 840 200 830 118 q 856 338 849 283 q 865 424 862 393 q 870 473 869 456 q 873 495 872 490 q 873 505 873 501 q 859 565 873 547 q 814 583 845 583 q 763 569 788 583 q 715 529 738 556 q 673 465 692 503 q 640 378 654 426 l 595 0 l 426 0 l 480 453 q 482 481 481 468 q 483 505 483 494 q 470 565 483 547 q 425 583 456 583 q 372 569 398 583 q 324 527 347 554 q 282 460 301 499 q 249 372 263 421 l 204 0 l 36 0 z "},"n":{"ha":748,"x_min":36,"x_max":692,"o":"m 36 0 l 122 713 l 209 713 q 251 700 236 713 q 266 658 266 687 l 261 565 q 381 684 315 645 q 517 724 447 724 q 589 709 557 724 q 644 668 622 695 q 680 600 667 640 q 692 508 692 560 q 691 482 692 495 q 689 453 690 468 l 635 0 l 464 0 q 488 199 478 117 q 503 335 497 281 q 513 420 510 389 q 518 467 517 451 q 520 488 520 483 q 521 497 521 493 q 504 563 521 542 q 452 583 488 583 q 393 567 424 583 q 335 519 363 550 q 284 446 307 489 q 247 350 261 403 l 208 0 l 36 0 z "},"o":{"ha":708,"x_min":30,"x_max":679,"o":"m 319 122 q 397 146 363 122 q 457 212 432 171 q 494 308 481 253 q 508 424 508 363 q 478 551 508 510 q 389 592 449 592 q 311 568 346 592 q 252 502 276 544 q 215 406 228 460 q 201 290 201 351 q 231 162 201 203 q 319 122 260 122 m 304 -10 q 195 9 245 -10 q 108 67 144 29 q 51 161 72 106 q 30 288 30 217 q 59 460 30 381 q 140 599 89 540 q 259 690 191 657 q 404 724 327 724 q 514 704 463 724 q 601 646 564 684 q 658 552 638 608 q 679 425 679 497 q 649 254 679 333 q 568 116 619 174 q 449 23 517 57 q 304 -10 381 -10 z "},"p":{"ha":736,"x_min":8,"x_max":712,"o":"m 8 -233 l 123 713 l 210 713 q 250 703 233 713 q 267 670 267 693 q 267 668 267 670 q 266 655 267 666 q 265 621 265 644 q 262 556 264 598 q 378 678 313 633 q 515 724 443 724 q 596 707 560 724 q 658 658 633 691 q 698 576 684 626 q 712 458 712 526 q 699 340 712 398 q 664 229 687 281 q 609 133 641 177 q 539 58 578 90 q 456 8 500 26 q 365 -10 412 -10 q 277 7 317 -10 q 210 54 238 24 l 174 -233 l 8 -233 m 449 589 q 391 570 420 589 q 335 517 362 551 q 284 438 308 483 q 244 339 261 392 l 224 166 q 277 131 247 141 q 338 120 308 120 q 421 149 383 120 q 485 223 458 177 q 526 326 512 269 q 541 441 541 383 q 517 552 541 516 q 449 589 492 589 z "},"q":{"ha":719,"x_min":26,"x_max":682,"o":"m 567 -233 l 456 -233 q 431 -228 441 -233 q 415 -215 421 -223 q 406 -198 409 -208 q 403 -178 403 -188 q 404 -175 403 -178 q 405 -164 404 -173 q 408 -136 406 -155 q 415 -84 410 -117 q 425 2 419 -50 q 442 129 432 53 q 340 27 396 64 q 219 -10 285 -10 q 143 6 178 -10 q 82 53 108 22 q 41 132 56 85 q 26 244 26 180 q 42 368 26 308 q 88 482 58 428 q 159 579 117 535 q 252 656 201 624 q 364 705 304 688 q 491 723 424 723 q 587 716 539 723 q 682 691 635 709 l 567 -233 m 286 130 q 341 149 314 130 q 393 202 369 168 q 438 281 417 235 q 474 380 458 327 l 502 600 q 484 601 492 601 q 467 601 476 601 q 360 575 410 601 q 275 504 311 549 q 218 400 239 459 q 198 274 198 340 q 222 165 198 199 q 286 130 245 130 z "},"r":{"ha":505,"x_min":36,"x_max":524,"o":"m 36 0 l 123 713 l 210 713 q 251 702 235 713 q 267 667 267 691 q 267 664 267 667 q 266 650 267 662 q 265 613 265 638 q 262 542 264 588 q 358 672 306 626 q 466 717 410 717 q 524 705 494 717 l 492 541 q 426 556 458 556 q 318 497 365 556 q 242 312 272 438 l 204 0 l 36 0 z "},"s":{"ha":545,"x_min":-6,"x_max":553,"o":"m 509 578 q 494 563 501 567 q 476 558 488 558 q 452 565 465 558 q 423 581 440 572 q 386 597 407 590 q 335 603 365 603 q 251 579 280 603 q 222 517 222 554 q 234 481 222 496 q 265 455 246 466 q 310 434 285 444 q 361 414 335 425 q 413 390 388 403 q 457 357 438 376 q 489 310 476 338 q 501 244 501 283 q 480 147 501 193 q 422 65 460 100 q 329 9 383 30 q 208 -11 275 -11 q 143 -5 174 -11 q 83 14 111 2 q 33 42 56 26 q -6 76 10 58 l 36 142 q 55 160 44 153 q 80 166 65 166 q 106 157 94 166 q 134 137 118 148 q 173 117 150 126 q 231 108 195 108 q 281 116 259 108 q 318 137 303 124 q 340 167 333 150 q 348 204 348 185 q 336 243 348 228 q 305 270 324 259 q 260 291 285 282 q 209 309 235 299 q 158 331 183 319 q 114 363 133 344 q 82 409 94 382 q 70 476 70 437 q 88 568 70 524 q 141 648 106 613 q 227 703 176 682 q 344 724 278 724 q 465 700 413 724 q 553 641 517 677 l 509 578 z "},"t":{"ha":492,"x_min":59,"x_max":508,"o":"m 102 145 q 102 157 102 150 q 103 176 102 163 q 107 210 104 189 q 113 265 109 231 l 153 584 l 85 584 q 66 591 74 584 q 59 613 59 599 q 59 616 59 614 q 60 625 60 618 q 63 647 61 633 q 67 688 65 662 l 176 707 l 233 901 q 247 923 237 915 q 272 931 257 931 l 363 931 l 335 706 l 508 706 l 493 584 l 320 584 l 282 274 q 277 228 278 245 q 274 202 275 212 q 273 189 273 193 q 272 184 272 185 q 285 142 272 158 q 322 127 298 127 q 347 131 336 127 q 365 139 357 135 q 378 147 372 143 q 390 151 384 151 q 402 147 397 151 q 410 135 406 143 l 447 52 q 362 5 408 21 q 268 -11 315 -11 q 148 30 192 -11 q 102 145 104 71 z "},"u":{"ha":747,"x_min":56,"x_max":712,"o":"m 284 713 q 260 514 270 595 q 244 378 251 433 q 235 293 238 324 q 230 246 231 262 q 227 224 228 230 q 227 215 227 219 q 244 150 227 169 q 296 130 261 130 q 352 145 323 130 q 407 188 381 160 q 457 255 434 215 q 496 343 480 294 l 540 713 l 712 713 l 626 0 l 539 0 q 516 3 527 0 q 497 13 506 6 q 483 28 488 19 q 478 51 478 38 l 478 54 l 482 141 q 364 27 428 65 q 231 -10 299 -10 q 159 4 191 -10 q 103 45 126 18 q 68 112 81 72 q 56 203 56 152 q 56 231 56 217 q 59 260 57 245 l 113 713 l 284 713 z "},"v":{"ha":690,"x_min":48,"x_max":722,"o":"m 48 713 l 188 713 q 217 703 206 713 q 231 681 228 694 l 306 300 q 315 232 313 266 q 320 165 318 199 q 341 232 330 199 q 369 300 353 265 l 539 681 q 558 703 545 694 q 586 713 571 713 l 722 713 l 370 0 l 226 0 l 48 713 z "},"w":{"ha":1019,"x_min":53,"x_max":1055,"o":"m 53 713 l 183 713 q 213 703 201 713 q 226 681 225 694 l 268 300 q 272 240 272 269 q 274 181 272 210 q 295 240 284 210 q 319 300 307 269 l 474 682 q 492 705 480 696 q 520 714 505 714 l 594 714 q 622 705 612 714 q 635 682 633 696 l 694 300 q 703 240 699 269 q 709 181 706 210 q 725 240 717 210 q 746 300 734 269 l 884 681 q 901 703 889 694 q 930 713 914 713 l 1055 713 l 761 0 l 628 0 q 602 31 607 0 l 534 442 q 528 496 530 470 q 518 468 523 482 q 508 441 513 455 l 338 31 q 301 0 326 0 l 174 0 l 53 713 z "},"x":{"ha":699,"x_min":-37,"x_max":710,"o":"m 245 385 l 80 713 l 235 713 q 260 708 253 713 q 274 691 268 703 l 372 478 q 381 495 376 487 q 392 513 385 504 l 517 688 q 534 706 525 700 q 555 713 543 713 l 710 713 l 460 385 l 643 0 l 487 0 q 459 9 469 0 q 444 31 449 19 l 335 281 q 327 266 331 274 q 319 252 323 258 l 160 31 q 140 10 151 19 q 113 0 129 0 l -37 0 l 245 385 z "},"y":{"ha":690,"x_min":53,"x_max":728,"o":"m 258 -197 q 202 -233 240 -233 l 75 -233 l 233 54 l 53 713 l 197 713 q 225 703 216 713 q 238 681 235 694 l 326 311 q 332 276 330 293 q 336 240 335 258 q 352 276 344 258 q 368 312 360 294 l 544 681 q 564 704 551 695 q 591 713 577 713 l 728 713 l 258 -197 z "},"z":{"ha":608,"x_min":-1,"x_max":613,"o":"m 603 642 q 594 606 601 624 q 576 578 587 589 l 219 132 l 533 132 l 517 0 l -1 0 l 8 72 q 17 100 10 83 q 36 131 24 117 l 395 581 l 89 581 l 105 713 l 613 713 l 603 642 z "},"{":{"ha":383,"x_min":22,"x_max":428,"o":"m 87 306 q 71 361 87 340 q 22 383 56 383 l 33 478 q 105 521 85 478 q 125 652 125 564 q 124 678 125 663 q 123 708 124 692 q 122 739 123 724 q 122 765 122 753 q 138 896 122 839 q 189 993 155 953 q 274 1052 222 1032 q 395 1073 325 1073 l 428 1073 l 419 999 q 413 984 417 990 q 403 974 409 978 q 391 968 397 969 q 380 966 385 966 l 375 966 q 303 933 329 966 q 271 839 276 900 q 267 771 267 803 q 266 707 266 738 q 265 647 266 676 q 262 588 265 617 q 250 533 259 558 q 225 487 240 508 q 188 452 209 467 q 142 430 167 437 q 204 382 183 416 q 226 303 226 347 q 217 225 226 263 q 197 148 208 186 q 176 70 185 109 q 167 -12 167 31 q 186 -80 167 -53 q 243 -106 206 -106 l 249 -106 q 269 -112 258 -106 q 279 -135 279 -119 q 279 -137 279 -135 q 278 -146 279 -139 q 275 -169 277 -153 q 270 -212 274 -184 l 237 -212 q 141 -197 181 -212 q 75 -157 101 -183 q 36 -94 49 -131 q 23 -15 23 -58 q 33 72 23 31 q 55 151 43 113 q 77 228 67 190 q 87 306 87 267 z "},"|":{"ha":417,"x_min":100,"x_max":233,"o":"m 100 1074 l 233 1074 l 233 -233 l 100 -233 l 100 1074 z "},"}":{"ha":383,"x_min":-23,"x_max":383,"o":"m 318 555 q 334 500 318 522 q 383 478 349 478 l 372 383 q 300 340 320 383 q 280 209 280 297 q 281 183 280 198 q 282 153 281 169 q 283 122 282 138 q 283 96 283 107 q 267 -35 283 22 q 216 -132 250 -92 q 131 -191 183 -171 q 10 -212 79 -212 l -23 -212 l -14 -137 q -9 -123 -13 -129 q 2 -112 -4 -117 q 14 -107 8 -108 q 25 -105 20 -105 l 30 -105 q 102 -72 76 -105 q 134 22 128 -39 q 138 90 138 58 q 139 154 139 123 q 140 214 139 185 q 143 274 140 244 q 155 328 146 303 q 180 374 165 353 q 217 409 196 394 q 263 431 238 424 q 201 480 222 445 q 179 558 179 514 q 188 636 179 598 q 208 714 197 675 q 228 791 219 752 q 238 873 238 831 q 218 941 238 915 q 162 967 199 967 l 156 967 q 136 973 147 967 q 126 996 126 980 q 126 998 126 997 q 127 1007 126 1000 q 130 1030 128 1015 q 135 1073 131 1045 l 168 1073 q 264 1058 223 1073 q 330 1018 304 1044 q 369 956 356 992 q 382 876 382 919 q 372 790 382 831 q 350 710 362 749 q 328 633 338 671 q 318 555 318 594 z "},"~":{"ha":806,"x_min":26,"x_max":696,"o":"m 476 450 q 536 475 515 450 q 558 545 558 500 l 696 545 q 682 448 696 492 q 641 374 667 405 q 575 326 614 343 q 486 310 536 310 q 416 319 449 310 q 352 341 382 329 q 295 362 322 352 q 247 372 269 372 q 186 347 208 372 q 165 276 165 322 l 26 276 q 41 373 26 330 q 82 448 55 417 q 147 495 108 478 q 236 512 186 512 q 307 502 273 512 q 370 481 340 492 q 427 460 401 469 q 476 450 453 450 z "}," ":{"ha":268,"x_min":0,"x_max":0,"o":""},"¡":{"ha":464,"x_min":89,"x_max":372,"o":"m 89 -234 l 135 138 q 156 261 142 201 q 186 390 169 322 l 294 390 q 295 367 294 378 q 295 343 295 355 q 292 239 295 289 q 283 138 290 190 l 238 -234 l 89 -234 m 161 619 q 169 660 161 640 q 191 693 177 679 q 225 715 206 707 q 266 724 244 724 q 307 715 288 724 q 341 693 326 707 q 363 660 355 679 q 372 619 372 640 q 363 577 372 597 q 341 544 355 558 q 307 523 326 531 q 266 515 288 515 q 225 523 244 515 q 191 544 206 531 q 169 577 177 558 q 161 619 161 597 z "},"¢":{"ha":806,"x_min":85,"x_max":756,"o":"m 334 -6 q 233 27 279 2 q 155 92 188 52 q 104 185 122 132 q 85 305 85 239 q 113 466 85 391 q 191 596 140 540 q 316 684 242 651 q 484 721 390 717 l 507 832 q 524 861 510 848 q 557 874 538 874 l 618 874 l 585 715 q 681 682 639 705 q 756 624 723 659 l 706 567 q 691 552 698 557 q 670 547 683 547 q 651 552 660 547 q 628 564 641 557 q 599 577 615 570 q 560 590 582 585 l 462 115 q 526 129 500 119 q 572 149 553 139 q 605 168 591 160 q 633 176 619 176 q 663 163 654 176 l 701 104 q 642 56 674 76 q 577 23 611 36 q 508 2 544 9 q 436 -8 472 -6 l 415 -113 q 397 -142 411 -129 q 365 -155 383 -155 l 303 -155 l 334 -6 m 249 313 q 277 191 249 239 q 360 124 306 142 l 458 595 q 366 567 405 590 q 300 508 326 544 q 261 422 274 472 q 249 313 249 373 z "},"£":{"ha":806,"x_min":1,"x_max":818,"o":"m 632 460 q 616 431 631 444 q 581 418 601 418 l 316 418 l 299 275 q 277 192 294 228 q 232 127 261 157 q 286 137 259 133 q 340 140 313 140 l 756 140 l 747 72 q 739 46 745 59 q 722 23 732 33 q 697 7 711 13 q 667 0 683 0 l 1 0 l 14 104 q 89 144 62 115 q 124 231 116 173 l 147 418 l 39 418 l 47 485 q 64 513 49 500 q 99 526 78 526 l 160 526 l 180 693 q 216 817 188 758 q 292 919 245 876 q 403 989 339 963 q 548 1015 468 1015 q 652 1001 608 1015 q 729 964 697 988 q 783 907 761 940 q 818 835 804 874 l 746 792 q 707 781 726 781 q 684 786 695 781 q 665 803 673 791 q 641 833 652 819 q 615 856 629 847 q 580 870 600 865 q 532 875 560 875 q 464 863 495 875 q 409 827 433 850 q 369 770 385 803 q 349 694 354 737 l 329 526 l 640 526 l 632 460 l 632 460 z "},"¤":{"ha":806,"x_min":103,"x_max":756,"o":"m 173 467 q 182 537 173 504 q 209 599 192 570 l 103 705 l 190 790 l 294 685 q 358 714 324 703 q 429 724 392 724 q 499 714 465 724 q 561 688 532 705 l 667 793 l 753 708 l 647 603 q 676 539 665 574 q 686 467 686 505 q 677 398 686 431 q 650 336 667 365 l 756 231 l 669 145 l 564 249 q 501 222 535 231 q 429 212 467 212 q 360 221 393 212 q 298 247 327 230 l 192 142 l 106 228 l 211 332 q 183 395 193 361 q 173 467 173 430 m 300 467 q 310 417 300 441 q 338 375 320 393 q 379 347 356 358 q 429 337 403 337 q 480 347 456 337 q 522 375 504 358 q 550 417 540 393 q 560 467 560 441 q 550 519 560 495 q 522 561 540 543 q 480 589 504 578 q 429 599 456 599 q 379 589 403 599 q 338 561 356 578 q 310 519 320 543 q 300 467 300 495 z "},"¥":{"ha":806,"x_min":74,"x_max":872,"o":"m 106 438 l 300 438 l 92 1003 l 231 1003 q 266 992 253 1003 q 285 963 280 981 l 400 616 q 415 561 410 587 q 423 510 419 535 q 442 561 431 535 q 469 616 453 587 l 668 963 q 693 991 677 978 q 732 1003 710 1003 l 872 1003 l 524 438 l 719 438 l 708 347 l 484 347 l 476 280 l 699 280 l 688 188 l 464 188 l 441 0 l 276 0 l 299 188 l 74 188 l 87 280 l 310 280 l 317 347 l 94 347 l 106 438 z "},"¦":{"ha":417,"x_min":100,"x_max":233,"o":"m 100 1074 l 233 1074 l 233 513 l 100 513 l 100 1074 m 100 328 l 233 328 l 233 -233 l 100 -233 l 100 328 z "},"§":{"ha":646,"x_min":24,"x_max":638,"o":"m 594 867 q 578 851 586 856 q 559 847 570 847 q 534 854 547 847 q 506 869 522 861 q 468 885 490 878 q 418 892 447 892 q 368 885 390 892 q 332 864 347 877 q 309 834 317 851 q 301 798 301 817 q 314 762 301 778 q 350 732 328 746 q 399 704 372 717 q 457 676 427 691 q 514 644 486 662 q 564 604 542 626 q 599 553 585 582 q 613 488 613 524 q 583 374 613 426 q 487 292 553 323 q 524 241 510 270 q 538 173 538 212 q 518 72 538 119 q 461 -10 499 25 q 368 -64 423 -44 q 242 -84 313 -84 q 176 -77 208 -84 q 116 -59 144 -71 q 64 -32 88 -48 q 24 3 40 -16 l 70 65 q 89 83 78 77 q 115 89 99 89 q 143 80 131 89 q 171 60 155 71 q 210 41 187 50 q 271 32 233 32 q 358 60 327 32 q 390 134 390 88 q 376 178 390 160 q 340 211 363 197 q 290 239 318 226 q 231 265 261 251 q 173 295 201 278 q 122 333 144 311 q 86 385 100 356 q 73 453 73 414 q 106 566 73 517 q 204 643 138 615 q 167 698 181 667 q 153 772 153 729 q 171 864 153 820 q 225 941 190 908 q 312 994 260 974 q 431 1013 364 1013 q 553 989 500 1013 q 638 926 606 965 l 594 867 m 224 495 q 240 448 224 468 q 283 412 257 428 q 342 381 310 396 q 408 348 375 365 q 450 388 438 365 q 463 440 463 411 q 447 488 463 467 q 406 524 431 508 q 348 554 380 540 q 284 586 316 569 q 237 545 251 567 q 224 495 224 524 z "},"¨":{"ha":410,"x_min":51,"x_max":501,"o":"m 242 913 q 235 876 242 893 q 214 847 227 859 q 182 827 200 834 q 144 819 165 819 q 109 827 126 819 q 79 847 92 834 q 58 876 66 859 q 51 913 51 893 q 58 950 51 933 q 79 981 66 968 q 109 1002 92 994 q 144 1010 126 1010 q 182 1002 165 1010 q 214 981 200 994 q 235 950 227 968 q 242 913 242 933 m 501 913 q 494 876 501 893 q 473 847 486 859 q 443 827 460 834 q 405 819 425 819 q 368 827 385 819 q 338 847 351 834 q 317 876 325 859 q 310 913 310 893 q 317 950 310 933 q 338 981 325 968 q 368 1002 351 994 q 405 1010 385 1010 q 443 1002 425 1010 q 473 981 460 994 q 494 950 486 968 q 501 913 501 933 z "},"©":{"ha":1099,"x_min":56,"x_max":1081,"o":"m 726 356 q 740 352 733 356 q 750 344 746 349 l 807 283 q 709 208 768 234 q 570 182 650 182 q 444 207 501 182 q 348 275 388 231 q 287 377 308 318 q 265 504 265 435 q 290 634 265 575 q 357 736 314 693 q 458 802 400 778 q 584 826 516 826 q 717 800 661 826 q 810 733 772 774 l 765 672 q 753 660 760 666 q 735 655 746 655 q 713 662 723 655 q 688 677 702 669 q 650 692 673 685 q 592 699 628 699 q 518 686 551 699 q 464 647 486 672 q 429 585 441 622 q 417 504 417 549 q 430 421 417 457 q 463 360 442 385 q 514 323 484 335 q 578 310 543 310 q 634 315 613 310 q 672 328 656 321 q 699 344 687 336 q 726 356 710 351 m 56 502 q 75 639 56 573 q 126 761 93 704 q 207 865 160 818 q 310 945 253 912 q 432 997 367 978 q 568 1015 497 1015 q 705 997 639 1015 q 827 945 770 978 q 931 865 884 912 q 1011 761 978 818 q 1063 639 1044 704 q 1081 502 1081 573 q 1063 366 1081 432 q 1011 244 1044 301 q 931 141 978 188 q 827 60 884 94 q 705 9 770 27 q 568 -10 639 -10 q 432 9 498 -10 q 310 60 367 27 q 207 141 253 94 q 126 244 160 188 q 75 366 93 301 q 56 502 56 431 m 150 502 q 182 333 150 412 q 271 197 215 255 q 403 106 327 139 q 568 72 480 72 q 681 88 627 72 q 782 131 735 103 q 868 197 829 158 q 933 284 906 236 q 975 387 960 332 q 990 502 990 442 q 975 618 990 563 q 933 722 960 674 q 868 809 906 770 q 782 877 829 849 q 681 920 735 905 q 568 935 627 935 q 456 920 510 935 q 356 877 402 905 q 271 809 309 849 q 206 722 233 770 q 165 618 179 674 q 150 502 150 563 z "},"ª":{"ha":446,"x_min":92,"x_max":465,"o":"m 374 584 q 351 589 358 584 q 338 608 343 594 l 333 633 q 301 609 316 619 q 270 592 285 599 q 237 582 254 585 q 199 578 220 578 q 121 604 150 578 q 92 678 92 630 q 104 731 92 704 q 144 780 115 758 q 222 816 173 801 q 345 832 270 830 l 347 861 q 345 885 347 874 q 338 905 343 897 q 323 917 332 913 q 299 922 314 922 q 264 916 278 922 q 239 905 250 911 q 216 894 227 899 q 192 889 206 889 q 173 895 180 889 q 161 910 165 902 l 144 949 q 230 1001 185 985 q 326 1017 276 1017 q 383 1005 358 1017 q 427 974 409 994 q 455 929 445 955 q 465 873 465 903 q 465 868 465 872 q 464 853 465 864 q 460 824 463 843 q 455 774 458 806 q 444 696 451 742 q 430 584 438 649 l 374 584 m 247 660 q 290 669 271 660 q 329 698 308 678 l 336 759 q 275 752 299 758 q 235 739 250 747 q 214 718 220 730 q 208 692 208 706 q 218 667 208 674 q 247 660 228 660 z "},"«":{"ha":640,"x_min":84,"x_max":573,"o":"m 84 363 l 88 383 l 285 658 l 336 632 q 358 601 358 623 q 355 585 358 594 q 345 567 351 577 l 239 401 q 213 372 227 384 q 223 360 219 367 q 231 344 227 353 l 297 178 q 303 154 303 165 q 273 113 303 126 l 215 88 l 84 363 m 299 363 l 302 383 l 500 658 l 551 632 q 573 601 573 623 q 569 585 573 594 q 560 567 565 577 l 453 401 q 428 372 442 384 q 438 360 433 367 q 446 344 442 353 l 512 178 q 517 154 517 165 q 488 113 517 126 l 430 88 l 299 363 z "},"¬":{"ha":806,"x_min":104,"x_max":732,"o":"m 119 528 l 732 528 l 692 208 l 552 208 l 576 405 l 104 405 l 119 528 z "},"­":{"ha":461,"x_min":65,"x_max":416,"o":"m 82 488 l 416 488 l 399 350 l 65 350 l 82 488 z "},"®":{"ha":1099,"x_min":55,"x_max":1080,"o":"m 55 502 q 95 702 55 608 q 205 865 135 795 q 367 975 274 935 q 567 1015 460 1015 q 703 997 638 1015 q 826 945 769 978 q 930 865 883 912 q 1010 761 976 818 q 1061 639 1043 704 q 1080 502 1080 573 q 1061 366 1080 432 q 1010 244 1043 301 q 930 141 976 188 q 826 60 883 94 q 703 9 769 27 q 567 -10 638 -10 q 431 9 496 -10 q 308 60 365 27 q 205 141 251 94 q 125 244 158 188 q 73 366 92 301 q 55 502 55 431 m 148 502 q 180 333 148 412 q 269 197 213 255 q 402 106 326 139 q 567 72 478 72 q 680 88 626 72 q 781 131 734 103 q 866 197 828 158 q 932 284 905 236 q 974 387 959 332 q 989 502 989 442 q 974 618 989 563 q 932 722 959 674 q 866 809 905 770 q 781 877 828 849 q 680 920 734 905 q 567 935 626 935 q 454 920 508 935 q 353 877 400 905 q 269 809 307 849 q 204 722 231 770 q 163 618 177 674 q 148 502 148 563 m 489 418 l 489 192 l 340 192 l 340 815 l 563 815 q 753 769 693 815 q 814 635 814 722 q 782 527 814 574 q 683 460 750 481 q 709 438 699 451 q 730 406 719 424 l 856 192 l 713 192 q 669 215 682 192 l 569 398 q 554 413 563 408 q 527 418 545 418 l 489 418 m 489 524 l 551 524 q 609 530 587 524 q 645 548 632 536 q 663 577 658 560 q 667 617 667 594 q 663 655 667 638 q 648 682 659 671 q 616 698 636 692 q 563 703 595 703 l 489 703 l 489 524 z "},"¯":{"ha":410,"x_min":76,"x_max":474,"o":"m 90 951 l 474 951 l 460 844 l 76 844 l 90 951 z "},"°":{"ha":544,"x_min":88,"x_max":569,"o":"m 88 780 q 107 873 88 829 q 157 948 125 916 q 233 998 190 980 q 328 1017 277 1017 q 423 998 378 1017 q 499 948 467 980 q 550 873 531 916 q 569 780 569 829 q 550 689 569 732 q 499 614 531 646 q 423 563 467 581 q 328 544 378 544 q 233 563 277 544 q 157 614 190 581 q 107 689 125 646 q 88 780 88 732 m 207 778 q 216 731 207 753 q 241 692 225 708 q 280 666 258 676 q 328 657 301 657 q 375 666 353 657 q 414 692 397 676 q 439 731 430 708 q 448 778 448 753 q 439 827 448 805 q 414 867 430 850 q 375 893 397 883 q 328 903 353 903 q 280 893 301 903 q 241 867 258 883 q 216 827 225 850 q 207 778 207 805 z "},"±":{"ha":806,"x_min":30,"x_max":774,"o":"m 533 858 l 502 610 l 774 610 l 758 488 l 487 488 l 458 249 l 324 249 l 353 488 l 83 488 l 97 610 l 368 610 l 399 858 l 533 858 m 44 178 l 720 178 l 705 56 l 30 56 l 44 178 z "},"²":{"ha":463,"x_min":81,"x_max":490,"o":"m 339 1144 q 404 1134 376 1144 q 451 1106 432 1124 q 480 1064 470 1088 q 490 1011 490 1040 q 479 953 490 979 q 451 903 469 926 q 410 858 433 880 q 363 815 388 837 l 258 719 q 297 728 278 725 q 333 732 317 732 l 428 732 q 464 701 464 732 q 463 692 464 701 q 461 674 462 683 q 459 655 460 664 q 458 646 458 647 l 456 625 l 81 625 l 87 664 q 94 688 88 675 q 112 710 100 700 l 276 855 q 312 890 295 872 q 342 926 329 908 q 361 963 354 944 q 369 999 369 981 q 356 1035 369 1021 q 321 1049 343 1049 q 282 1036 297 1049 q 253 1002 266 1024 q 236 983 245 989 q 211 977 226 977 q 203 977 208 977 q 194 978 199 978 l 130 989 q 160 1057 140 1028 q 207 1106 180 1086 q 267 1134 234 1125 q 339 1144 301 1144 z "},"³":{"ha":463,"x_min":108,"x_max":503,"o":"m 353 1144 q 417 1134 389 1144 q 464 1107 445 1124 q 493 1068 483 1090 q 503 1022 503 1046 q 482 943 503 974 q 415 896 462 913 q 467 861 450 883 q 484 802 484 838 q 466 721 484 756 q 419 664 448 687 q 353 631 390 642 q 281 619 317 619 q 215 627 244 619 q 165 650 186 634 q 131 693 144 667 q 108 758 117 719 l 163 780 q 190 785 176 785 q 223 766 215 785 q 230 750 226 758 q 242 734 235 741 q 260 722 249 726 q 288 717 272 717 q 343 739 323 717 q 364 792 364 760 q 343 834 364 822 q 268 846 322 846 l 278 928 q 361 945 338 929 q 385 999 385 961 q 373 1034 385 1021 q 335 1047 360 1047 q 292 1035 308 1047 q 267 1003 276 1024 q 249 983 258 990 q 227 977 241 977 q 219 977 224 977 q 210 978 215 978 l 150 989 q 180 1057 160 1028 q 227 1106 200 1086 q 285 1134 253 1125 q 353 1144 317 1144 z "},"´":{"ha":410,"x_min":177,"x_max":515,"o":"m 515 1015 l 333 833 q 307 815 319 819 q 276 810 294 810 l 177 810 l 288 978 q 314 1006 300 997 q 355 1015 328 1015 l 515 1015 z "},"µ":{"ha":729,"x_min":7,"x_max":692,"o":"m 281 712 q 256 511 267 593 q 239 376 246 429 q 229 293 233 322 q 224 249 226 263 q 222 231 222 235 q 222 226 222 228 q 245 147 222 175 q 315 119 268 119 q 390 138 353 119 q 462 191 426 157 l 527 712 l 692 712 l 604 0 l 503 0 q 465 31 472 0 l 460 87 q 418 51 438 66 q 377 27 398 36 q 335 13 357 17 q 290 9 314 9 q 227 20 255 9 q 178 53 199 32 q 180 35 180 44 q 180 16 180 26 q 178 -24 180 -4 q 175 -62 177 -44 l 154 -234 l 72 -234 q 24 -219 41 -234 q 7 -176 7 -204 q 7 -171 7 -174 q 8 -165 7 -168 l 116 712 l 281 712 z "},"¶":{"ha":973,"x_min":66,"x_max":1032,"o":"m 1032 1004 l 1015 860 l 865 860 l 742 -145 l 592 -145 l 715 860 l 552 860 l 429 -145 l 279 -145 l 351 438 q 233 456 285 438 q 143 508 180 474 q 86 587 106 541 q 66 688 66 633 q 92 810 66 752 q 164 911 117 867 q 276 979 210 954 q 420 1004 341 1004 l 1032 1004 z "},"·":{"ha":388,"x_min":77,"x_max":340,"o":"m 77 413 q 88 464 77 440 q 116 506 98 488 q 157 534 133 524 q 208 544 181 544 q 259 534 235 544 q 301 506 283 524 q 329 464 319 488 q 340 413 340 440 q 329 363 340 386 q 301 322 319 340 q 259 294 283 304 q 208 284 235 284 q 157 294 181 284 q 116 322 133 304 q 88 363 98 340 q 77 413 77 386 z "},"¸":{"ha":410,"x_min":15,"x_max":281,"o":"m 58 -160 q 67 -161 63 -160 q 77 -165 72 -163 q 90 -169 83 -167 q 106 -171 97 -171 q 139 -160 128 -171 q 150 -135 150 -149 q 129 -108 150 -117 q 63 -93 108 -99 l 104 10 l 208 10 l 188 -40 q 260 -77 239 -53 q 281 -130 281 -100 q 268 -177 281 -156 q 232 -212 255 -198 q 177 -235 209 -227 q 108 -242 146 -242 q 60 -238 82 -242 q 15 -226 38 -234 l 38 -174 q 58 -160 44 -160 z "},"¹":{"ha":463,"x_min":151,"x_max":448,"o":"m 162 711 l 258 711 l 288 959 l 296 993 l 235 949 q 222 942 228 944 q 210 940 215 940 q 193 944 200 940 q 183 953 186 949 l 152 1005 l 329 1139 l 429 1139 l 376 711 l 448 711 l 438 625 l 151 625 l 162 711 z "},"º":{"ha":498,"x_min":92,"x_max":517,"o":"m 333 1016 q 409 1003 375 1016 q 467 965 443 990 q 504 906 491 940 q 517 828 517 871 q 499 724 517 770 q 450 644 481 677 q 374 593 418 611 q 279 576 331 576 q 201 589 236 576 q 142 627 167 602 q 105 686 118 651 q 92 765 92 722 q 110 869 92 823 q 160 948 128 915 q 236 998 192 981 q 333 1016 281 1016 m 291 672 q 366 714 343 672 q 389 828 389 755 q 372 896 389 872 q 321 919 355 919 q 272 908 291 919 q 241 876 252 897 q 225 827 229 856 q 220 763 220 798 q 238 695 220 719 q 291 672 255 672 z "},"»":{"ha":640,"x_min":78,"x_max":565,"o":"m 350 383 l 348 363 l 150 88 l 99 113 q 78 144 78 123 q 90 178 78 159 l 197 344 q 209 360 203 353 q 222 372 215 367 q 204 401 210 383 l 137 567 q 133 590 133 578 q 163 632 133 618 l 220 658 l 350 383 m 565 383 l 563 363 l 365 88 l 314 113 q 292 144 292 123 q 304 178 292 159 l 412 344 q 424 360 417 353 q 436 372 430 367 q 419 401 424 383 l 351 567 q 347 590 347 578 q 378 632 347 618 l 435 658 l 565 383 z "},"¼":{"ha":1024,"x_min":125,"x_max":976,"o":"m 319 49 q 277 10 299 20 q 229 0 256 0 l 161 0 l 813 947 q 855 989 832 974 q 908 1003 878 1003 l 976 1003 l 319 49 m 903 205 l 969 205 l 962 135 q 954 120 960 127 q 936 113 947 113 l 892 113 l 878 0 l 778 0 l 792 113 l 591 113 q 567 120 575 113 q 558 138 558 128 l 553 197 l 827 513 l 942 513 l 903 205 m 136 576 l 233 576 l 262 820 q 265 840 263 832 q 270 858 267 849 l 209 814 q 185 806 198 806 q 167 810 175 806 q 155 823 160 815 l 126 870 l 303 1004 l 403 1004 l 351 576 l 422 576 l 412 490 l 125 490 l 136 576 m 818 318 q 824 355 820 335 q 833 395 827 374 l 672 205 l 804 205 l 818 318 z "},"½":{"ha":1024,"x_min":130,"x_max":963,"o":"m 297 49 q 255 10 276 20 q 206 0 233 0 l 138 0 l 790 947 q 832 989 809 974 q 885 1003 855 1003 l 953 1003 l 297 49 m 813 519 q 877 509 849 519 q 925 481 906 499 q 953 439 944 463 q 963 386 963 415 q 953 328 963 354 q 925 278 942 301 q 884 233 907 255 q 836 190 861 212 l 731 94 q 771 103 751 100 q 806 107 790 107 l 902 107 q 938 76 938 107 q 935 56 938 75 l 929 0 l 555 0 l 560 39 q 568 63 562 50 q 585 85 574 75 l 749 230 q 786 265 769 247 q 815 301 803 283 q 835 338 828 319 q 842 374 842 356 q 830 410 842 396 q 794 424 817 424 q 755 411 771 424 q 726 377 738 399 q 710 358 719 364 q 685 352 701 352 q 664 354 678 352 l 603 364 q 634 432 614 403 q 681 481 653 461 q 741 509 708 500 q 813 519 774 519 m 141 576 l 238 576 l 267 820 q 270 840 268 832 q 275 858 272 849 l 214 814 q 190 806 203 806 q 172 810 180 806 q 160 823 165 815 l 131 870 l 308 1004 l 408 1004 l 356 576 l 427 576 l 417 490 l 130 490 l 141 576 z "},"¾":{"ha":1024,"x_min":92,"x_max":988,"o":"m 331 49 q 289 10 310 20 q 240 0 267 0 l 172 0 l 824 947 q 866 989 843 974 q 919 1003 889 1003 l 988 1003 l 331 49 m 912 205 l 978 205 l 970 135 q 962 120 969 127 q 944 113 956 113 l 901 113 l 887 0 l 787 0 l 801 113 l 599 113 q 575 120 583 113 q 566 138 567 128 l 561 197 l 835 513 l 950 513 l 912 205 m 337 1009 q 401 999 373 1009 q 448 972 429 989 q 477 933 467 956 q 487 887 487 911 q 466 809 487 840 q 399 761 446 778 q 451 726 434 749 q 468 667 468 703 q 450 586 468 621 q 403 530 432 552 q 338 496 374 507 q 265 485 301 485 q 199 492 228 485 q 149 516 170 499 q 115 558 128 532 q 92 623 101 585 l 147 645 q 174 651 162 651 q 207 631 199 651 q 229 597 215 611 q 272 583 243 583 q 327 604 307 583 q 348 657 348 626 q 327 699 348 687 q 252 711 306 711 l 263 794 q 345 810 322 794 q 369 864 369 826 q 357 899 369 886 q 319 912 344 912 q 276 900 292 912 q 251 869 260 888 q 235 849 244 855 q 212 842 226 842 q 203 843 208 842 q 186 845 197 843 l 134 854 q 164 923 144 894 q 211 971 184 951 q 269 1000 238 990 q 337 1009 301 1009 m 826 318 q 832 355 828 335 q 841 395 835 374 l 680 205 l 813 205 l 826 318 z "},"¿":{"ha":542,"x_min":-14,"x_max":469,"o":"m 469 -142 q 416 -181 444 -162 q 356 -213 388 -199 q 288 -235 324 -227 q 210 -244 251 -244 q 117 -230 158 -244 q 47 -190 76 -216 q 2 -126 17 -164 q -14 -42 -14 -89 q 2 53 -14 13 q 42 121 18 92 q 95 170 66 149 q 151 209 124 191 q 198 245 178 227 q 225 288 218 264 l 253 390 l 366 390 l 366 276 q 350 222 366 245 q 310 177 334 198 q 258 138 286 157 q 207 97 231 119 q 167 49 183 76 q 151 -12 151 23 q 158 -55 151 -36 q 177 -85 165 -73 q 206 -104 190 -98 q 241 -110 222 -110 q 302 -101 276 -110 q 347 -82 328 -92 q 379 -62 366 -71 q 403 -53 392 -53 q 434 -72 426 -53 l 469 -142 m 228 619 q 236 660 228 641 q 258 694 244 680 q 291 716 272 708 q 333 724 310 724 q 374 716 355 724 q 407 694 393 708 q 430 660 422 680 q 438 619 438 641 q 430 578 438 597 q 407 545 422 559 q 374 523 393 531 q 333 515 355 515 q 291 523 310 515 q 258 545 272 531 q 236 578 244 559 q 228 619 228 597 z "},"À":{"ha":891,"x_min":-50,"x_max":859,"o":"m 859 0 l 719 0 q 682 11 696 0 q 665 41 668 22 l 623 251 l 249 251 l 156 41 q 131 13 148 25 q 92 0 113 0 l -50 0 l 435 1004 l 619 1004 l 859 0 m 305 378 l 597 378 l 529 722 q 518 774 524 747 q 508 837 513 802 q 482 773 494 802 q 458 721 469 743 l 305 378 m 462 1242 q 484 1241 475 1242 q 500 1237 493 1240 q 513 1229 507 1234 q 526 1216 519 1224 l 633 1076 l 492 1076 q 464 1082 474 1076 q 440 1099 453 1088 l 278 1242 l 462 1242 z "},"Á":{"ha":891,"x_min":-50,"x_max":859,"o":"m 859 0 l 719 0 q 682 11 696 0 q 665 41 668 22 l 623 251 l 249 251 l 156 41 q 131 13 148 25 q 92 0 113 0 l -50 0 l 435 1004 l 619 1004 l 859 0 m 305 378 l 597 378 l 529 722 q 518 774 524 747 q 508 837 513 802 q 482 773 494 802 q 458 721 469 743 l 305 378 m 835 1242 l 638 1099 q 606 1082 622 1088 q 573 1076 591 1076 l 439 1076 l 581 1216 q 596 1230 589 1224 q 611 1238 603 1235 q 629 1241 619 1240 q 652 1242 638 1242 l 835 1242 z "},"Â":{"ha":891,"x_min":-50,"x_max":859,"o":"m 859 0 l 719 0 q 682 11 696 0 q 665 41 668 22 l 623 251 l 249 251 l 156 41 q 131 13 148 25 q 92 0 113 0 l -50 0 l 435 1004 l 619 1004 l 859 0 m 305 378 l 597 378 l 529 722 q 518 774 524 747 q 508 837 513 802 q 482 773 494 802 q 458 721 469 743 l 305 378 m 770 1076 l 644 1076 q 624 1079 635 1076 q 606 1087 613 1083 l 551 1135 q 546 1140 549 1138 q 541 1145 543 1142 l 530 1135 l 463 1087 q 443 1078 455 1081 q 420 1076 431 1076 l 296 1076 l 469 1227 l 634 1227 l 770 1076 z "},"Ã":{"ha":891,"x_min":-50,"x_max":859,"o":"m 859 0 l 719 0 q 682 11 696 0 q 665 41 668 22 l 623 251 l 249 251 l 156 41 q 131 13 148 25 q 92 0 113 0 l -50 0 l 435 1004 l 619 1004 l 859 0 m 305 378 l 597 378 l 529 722 q 518 774 524 747 q 508 837 513 802 q 482 773 494 802 q 458 721 469 743 l 305 378 m 627 1177 q 656 1188 644 1177 q 670 1222 667 1199 l 760 1222 q 744 1160 756 1188 q 714 1111 733 1132 q 672 1080 696 1091 q 618 1069 647 1069 q 574 1077 595 1069 q 535 1094 553 1085 q 501 1111 517 1103 q 472 1119 485 1119 q 444 1107 456 1119 q 430 1072 433 1095 l 338 1072 q 355 1135 342 1106 q 385 1183 367 1163 q 428 1215 403 1203 q 481 1226 452 1226 q 525 1219 504 1226 q 564 1202 546 1211 q 598 1185 583 1192 q 627 1177 614 1177 z "},"Ä":{"ha":891,"x_min":-50,"x_max":859,"o":"m 859 0 l 719 0 q 682 11 696 0 q 665 41 668 22 l 623 251 l 249 251 l 156 41 q 131 13 148 25 q 92 0 113 0 l -50 0 l 435 1004 l 619 1004 l 859 0 m 305 378 l 597 378 l 529 722 q 518 774 524 747 q 508 837 513 802 q 482 773 494 802 q 458 721 469 743 l 305 378 m 490 1157 q 483 1125 490 1140 q 465 1099 476 1110 q 438 1082 453 1088 q 405 1075 422 1075 q 373 1082 388 1075 q 347 1099 358 1088 q 329 1125 335 1110 q 322 1157 322 1140 q 329 1190 322 1174 q 347 1217 335 1206 q 373 1235 358 1228 q 405 1242 388 1242 q 438 1235 422 1242 q 465 1217 453 1228 q 483 1190 476 1206 q 490 1157 490 1174 m 734 1157 q 727 1125 734 1140 q 709 1099 721 1110 q 683 1082 698 1088 q 650 1075 667 1075 q 618 1082 633 1075 q 591 1099 603 1088 q 573 1125 580 1110 q 567 1157 567 1140 q 573 1190 567 1174 q 591 1217 580 1206 q 618 1235 603 1228 q 650 1242 633 1242 q 683 1235 667 1242 q 709 1217 698 1228 q 727 1190 721 1206 q 734 1157 734 1174 z "},"Å":{"ha":891,"x_min":-50,"x_max":859,"o":"m 859 0 l 719 0 q 682 11 696 0 q 665 41 668 22 l 623 251 l 249 251 l 156 41 q 131 13 148 25 q 92 0 113 0 l -50 0 l 435 1004 l 619 1004 l 859 0 m 305 378 l 597 378 l 529 722 q 518 774 524 747 q 508 837 513 802 q 482 773 494 802 q 458 721 469 743 l 305 378 m 390 1169 q 402 1223 390 1199 q 434 1265 414 1247 q 479 1292 453 1282 q 533 1301 505 1301 q 589 1292 563 1301 q 636 1265 616 1282 q 667 1223 656 1247 q 679 1169 679 1199 q 667 1116 679 1140 q 636 1074 656 1092 q 589 1048 616 1057 q 533 1038 563 1038 q 479 1048 505 1038 q 434 1074 453 1057 q 402 1116 414 1092 q 390 1169 390 1140 m 473 1169 q 489 1124 473 1142 q 535 1107 505 1107 q 580 1124 563 1107 q 597 1169 597 1142 q 580 1215 597 1198 q 535 1231 563 1231 q 489 1215 505 1231 q 473 1169 473 1198 z "},"Æ":{"ha":1188,"x_min":-66,"x_max":1215,"o":"m 516 1004 l 1215 1004 l 1198 860 l 751 860 l 751 574 l 1076 574 l 1058 436 l 751 436 l 751 144 l 1110 144 l 1092 0 l 581 0 l 581 251 l 257 251 l 142 41 q 115 13 133 25 q 74 0 97 0 l -66 0 l 516 1004 m 326 378 l 581 378 l 581 857 q 556 799 569 826 q 530 749 544 772 l 326 378 z "},"Ç":{"ha":838,"x_min":51,"x_max":885,"o":"m 344 -160 q 354 -161 349 -160 q 364 -165 358 -163 q 376 -169 369 -167 q 393 -171 383 -171 q 426 -160 415 -171 q 437 -135 437 -149 q 416 -108 437 -117 q 350 -93 395 -99 l 384 -8 q 243 38 305 2 q 138 132 181 74 q 74 264 96 189 q 51 426 51 339 q 70 590 51 513 q 124 733 89 667 q 207 851 158 799 q 315 940 256 903 q 442 996 374 976 q 585 1015 510 1015 q 685 1005 640 1015 q 767 977 730 995 q 833 934 803 959 q 885 877 862 908 l 823 802 q 807 788 816 794 q 783 781 797 781 q 754 794 768 781 q 719 821 740 806 q 664 849 698 836 q 576 861 631 861 q 442 832 503 861 q 334 747 380 802 q 262 615 288 692 q 236 441 236 538 q 254 315 236 371 q 303 221 272 260 q 377 162 334 183 q 471 142 420 142 q 545 148 513 142 q 600 165 576 155 q 640 187 623 176 q 669 209 656 199 q 691 226 681 219 q 710 233 701 233 q 724 229 719 233 q 733 222 730 226 l 797 144 q 661 38 738 76 q 487 -9 585 -1 l 475 -40 q 547 -77 526 -53 q 567 -130 567 -100 q 555 -177 567 -156 q 519 -212 542 -198 q 464 -235 496 -227 q 395 -242 433 -242 q 347 -238 369 -242 q 302 -226 324 -234 l 325 -174 q 344 -160 331 -160 z "},"È":{"ha":730,"x_min":49,"x_max":758,"o":"m 758 1004 l 740 860 l 335 860 l 301 575 l 618 575 l 601 437 l 283 437 l 247 144 l 653 144 l 635 0 l 49 0 l 172 1004 l 758 1004 m 403 1242 q 426 1241 417 1242 q 442 1237 435 1240 q 455 1229 449 1234 q 468 1216 460 1224 l 574 1076 l 434 1076 q 405 1082 415 1076 q 382 1099 395 1088 l 219 1242 l 403 1242 z "},"É":{"ha":730,"x_min":49,"x_max":760,"o":"m 758 1004 l 740 860 l 335 860 l 301 575 l 618 575 l 601 437 l 283 437 l 247 144 l 653 144 l 635 0 l 49 0 l 172 1004 l 758 1004 m 760 1242 l 563 1099 q 532 1082 547 1088 q 499 1076 517 1076 l 365 1076 l 506 1216 q 522 1230 515 1224 q 537 1238 529 1235 q 555 1241 545 1240 q 578 1242 564 1242 l 760 1242 z "},"Ê":{"ha":730,"x_min":49,"x_max":758,"o":"m 758 1004 l 740 860 l 335 860 l 301 575 l 618 575 l 601 437 l 283 437 l 247 144 l 653 144 l 635 0 l 49 0 l 172 1004 l 758 1004 m 712 1076 l 586 1076 q 566 1079 576 1076 q 547 1087 555 1083 l 492 1135 q 488 1140 490 1138 q 483 1145 485 1142 l 472 1135 l 404 1087 q 384 1078 397 1081 q 362 1076 372 1076 l 238 1076 l 410 1227 l 576 1227 l 712 1076 z "},"Ë":{"ha":730,"x_min":49,"x_max":758,"o":"m 758 1004 l 740 860 l 335 860 l 301 575 l 618 575 l 601 437 l 283 437 l 247 144 l 653 144 l 635 0 l 49 0 l 172 1004 l 758 1004 m 432 1157 q 425 1125 432 1140 q 407 1099 418 1110 q 380 1082 395 1088 q 347 1075 364 1075 q 315 1082 330 1075 q 289 1099 300 1088 q 270 1125 277 1110 q 264 1157 264 1140 q 270 1190 264 1174 q 289 1217 277 1206 q 315 1235 300 1228 q 347 1242 330 1242 q 380 1235 364 1242 q 407 1217 395 1228 q 425 1190 418 1206 q 432 1157 432 1174 m 676 1157 q 669 1125 676 1140 q 651 1099 663 1110 q 624 1082 640 1088 q 592 1075 609 1075 q 559 1082 574 1075 q 533 1099 544 1088 q 515 1125 522 1110 q 508 1157 508 1140 q 515 1190 508 1174 q 533 1217 522 1206 q 559 1235 544 1228 q 592 1242 574 1242 q 624 1235 609 1242 q 651 1217 640 1228 q 669 1190 663 1206 q 676 1157 676 1174 z "},"Ì":{"ha":403,"x_min":36,"x_max":391,"o":"m 250 0 l 69 0 l 192 1004 l 373 1004 l 250 0 m 220 1242 q 242 1241 233 1242 q 258 1237 251 1240 q 271 1229 265 1234 q 285 1216 277 1224 l 391 1076 l 251 1076 q 222 1082 232 1076 q 199 1099 212 1088 l 36 1242 l 220 1242 z "},"Í":{"ha":403,"x_min":69,"x_max":577,"o":"m 250 0 l 69 0 l 192 1004 l 373 1004 l 250 0 m 577 1242 l 380 1099 q 349 1082 364 1088 q 315 1076 333 1076 l 181 1076 l 323 1216 q 339 1230 331 1224 q 354 1238 346 1235 q 371 1241 362 1240 q 394 1242 381 1242 l 577 1242 z "},"Î":{"ha":403,"x_min":54,"x_max":528,"o":"m 250 0 l 69 0 l 192 1004 l 373 1004 l 250 0 m 528 1076 l 403 1076 q 382 1079 393 1076 q 364 1087 372 1083 l 309 1135 q 304 1140 307 1138 q 299 1145 301 1142 l 288 1135 l 221 1087 q 201 1078 213 1081 q 178 1076 189 1076 l 54 1076 l 227 1227 l 392 1227 l 528 1076 z "},"Ï":{"ha":403,"x_min":69,"x_max":492,"o":"m 250 0 l 69 0 l 192 1004 l 373 1004 l 250 0 m 249 1157 q 242 1125 249 1140 q 223 1099 235 1110 q 196 1082 212 1088 q 163 1075 181 1075 q 132 1082 147 1075 q 105 1099 117 1088 q 87 1125 94 1110 q 81 1157 81 1140 q 87 1190 81 1174 q 105 1217 94 1206 q 132 1235 117 1228 q 163 1242 147 1242 q 196 1235 181 1242 q 223 1217 212 1228 q 242 1190 235 1206 q 249 1157 249 1174 m 492 1157 q 486 1125 492 1140 q 468 1099 479 1110 q 441 1082 456 1088 q 408 1075 426 1075 q 376 1082 391 1075 q 350 1099 361 1088 q 332 1125 338 1110 q 325 1157 325 1140 q 332 1190 325 1174 q 350 1217 338 1206 q 376 1235 361 1228 q 408 1242 391 1242 q 441 1235 426 1242 q 468 1217 456 1228 q 486 1190 479 1206 q 492 1157 492 1174 z "},"Ð":{"ha":1010,"x_min":47,"x_max":997,"o":"m 61 556 l 174 556 l 228 1004 l 583 1004 q 755 972 678 1004 q 886 881 832 939 q 968 744 940 824 q 997 569 997 664 q 956 340 997 444 q 844 159 916 235 q 675 42 773 84 q 460 0 576 0 l 106 0 l 161 453 l 47 453 l 61 556 m 812 565 q 795 688 812 633 q 747 781 778 742 q 669 840 715 819 q 565 861 624 861 l 392 861 l 355 556 l 583 556 l 572 453 l 342 453 l 305 144 l 478 144 q 615 173 553 144 q 721 257 677 202 q 788 389 765 311 q 812 565 812 467 z "},"Ñ":{"ha":967,"x_min":49,"x_max":958,"o":"m 267 1004 q 286 1003 278 1004 q 301 999 294 1002 q 312 990 307 996 q 322 975 317 985 l 713 290 q 716 329 715 310 q 720 365 718 348 l 799 1004 l 958 1004 l 833 0 l 741 0 q 706 7 720 0 q 681 31 691 13 l 292 717 q 290 684 291 700 q 287 655 288 669 l 208 0 l 49 0 l 172 1004 l 267 1004 l 267 1004 m 661 1177 q 690 1188 678 1177 q 704 1222 701 1199 l 794 1222 q 778 1160 790 1188 q 748 1111 767 1132 q 706 1080 730 1091 q 652 1069 681 1069 q 608 1077 629 1069 q 569 1094 588 1085 q 535 1111 551 1103 q 506 1119 519 1119 q 478 1107 490 1119 q 464 1072 467 1095 l 372 1072 q 389 1135 376 1106 q 419 1183 401 1163 q 462 1215 438 1203 q 515 1226 486 1226 q 559 1219 538 1226 q 598 1202 580 1211 q 632 1185 617 1192 q 661 1177 648 1177 z "},"Ò":{"ha":1017,"x_min":51,"x_max":1004,"o":"m 1004 569 q 986 411 1004 486 q 933 271 967 335 q 850 154 899 206 q 742 65 802 102 q 612 9 682 28 q 465 -11 542 -11 q 292 23 369 -11 q 162 117 216 57 q 80 258 108 176 q 51 434 51 339 q 70 593 51 517 q 123 733 88 668 q 205 849 157 797 q 314 939 253 901 q 444 995 374 976 q 592 1015 514 1015 q 764 981 688 1015 q 894 888 840 947 q 976 746 947 828 q 1004 569 1004 665 m 819 565 q 802 689 819 633 q 753 784 785 744 q 674 845 721 824 q 569 867 628 867 q 433 836 494 867 q 328 749 372 806 q 260 614 284 693 q 236 438 236 535 q 253 315 236 370 q 301 220 269 259 q 380 159 333 181 q 485 138 426 138 q 622 169 560 138 q 728 255 684 199 q 795 389 772 310 q 819 565 819 468 m 523 1242 q 545 1241 536 1242 q 561 1237 554 1240 q 574 1229 568 1234 q 588 1216 580 1224 l 694 1076 l 553 1076 q 525 1082 535 1076 q 501 1099 515 1088 l 339 1242 l 523 1242 z "},"Ó":{"ha":1017,"x_min":51,"x_max":1004,"o":"m 1004 569 q 986 411 1004 486 q 933 271 967 335 q 850 154 899 206 q 742 65 802 102 q 612 9 682 28 q 465 -11 542 -11 q 292 23 369 -11 q 162 117 216 57 q 80 258 108 176 q 51 434 51 339 q 70 593 51 517 q 123 733 88 668 q 205 849 157 797 q 314 939 253 901 q 444 995 374 976 q 592 1015 514 1015 q 764 981 688 1015 q 894 888 840 947 q 976 746 947 828 q 1004 569 1004 665 m 819 565 q 802 689 819 633 q 753 784 785 744 q 674 845 721 824 q 569 867 628 867 q 433 836 494 867 q 328 749 372 806 q 260 614 284 693 q 236 438 236 535 q 253 315 236 370 q 301 220 269 259 q 380 159 333 181 q 485 138 426 138 q 622 169 560 138 q 728 255 684 199 q 795 389 772 310 q 819 565 819 468 m 880 1242 l 683 1099 q 651 1082 667 1088 q 618 1076 636 1076 l 484 1076 l 626 1216 q 641 1230 634 1224 q 657 1238 649 1235 q 674 1241 665 1240 q 697 1242 683 1242 l 880 1242 z "},"Ô":{"ha":1017,"x_min":51,"x_max":1004,"o":"m 1004 569 q 986 411 1004 486 q 933 271 967 335 q 850 154 899 206 q 742 65 802 102 q 612 9 682 28 q 465 -11 542 -11 q 292 23 369 -11 q 162 117 216 57 q 80 258 108 176 q 51 434 51 339 q 70 593 51 517 q 123 733 88 668 q 205 849 157 797 q 314 939 253 901 q 444 995 374 976 q 592 1015 514 1015 q 764 981 688 1015 q 894 888 840 947 q 976 746 947 828 q 1004 569 1004 665 m 819 565 q 802 689 819 633 q 753 784 785 744 q 674 845 721 824 q 569 867 628 867 q 433 836 494 867 q 328 749 372 806 q 260 614 284 693 q 236 438 236 535 q 253 315 236 370 q 301 220 269 259 q 380 159 333 181 q 485 138 426 138 q 622 169 560 138 q 728 255 684 199 q 795 389 772 310 q 819 565 819 468 m 831 1076 l 706 1076 q 685 1079 696 1076 q 667 1087 674 1083 l 612 1135 q 607 1140 610 1138 q 602 1145 604 1142 l 591 1135 l 524 1087 q 504 1078 516 1081 q 481 1076 492 1076 l 357 1076 l 530 1227 l 695 1227 l 831 1076 z "},"Õ":{"ha":1017,"x_min":51,"x_max":1004,"o":"m 1004 569 q 986 411 1004 486 q 933 271 967 335 q 850 154 899 206 q 742 65 802 102 q 612 9 682 28 q 465 -11 542 -11 q 292 23 369 -11 q 162 117 216 57 q 80 258 108 176 q 51 434 51 339 q 70 593 51 517 q 123 733 88 668 q 205 849 157 797 q 314 939 253 901 q 444 995 374 976 q 592 1015 514 1015 q 764 981 688 1015 q 894 888 840 947 q 976 746 947 828 q 1004 569 1004 665 m 819 565 q 802 689 819 633 q 753 784 785 744 q 674 845 721 824 q 569 867 628 867 q 433 836 494 867 q 328 749 372 806 q 260 614 284 693 q 236 438 236 535 q 253 315 236 370 q 301 220 269 259 q 380 159 333 181 q 485 138 426 138 q 622 169 560 138 q 728 255 684 199 q 795 389 772 310 q 819 565 819 468 m 688 1177 q 717 1188 705 1177 q 731 1222 728 1199 l 822 1222 q 806 1160 817 1188 q 775 1111 794 1132 q 733 1080 757 1091 q 679 1069 708 1069 q 635 1077 656 1069 q 596 1094 615 1085 q 562 1111 578 1103 q 533 1119 547 1119 q 505 1107 517 1119 q 491 1072 494 1095 l 399 1072 q 416 1135 403 1106 q 446 1183 428 1163 q 489 1215 465 1203 q 542 1226 513 1226 q 586 1219 565 1226 q 625 1202 607 1211 q 659 1185 644 1192 q 688 1177 675 1177 z "},"Ö":{"ha":1017,"x_min":51,"x_max":1004,"o":"m 1004 569 q 986 411 1004 486 q 933 271 967 335 q 850 154 899 206 q 742 65 802 102 q 612 9 682 28 q 465 -11 542 -11 q 292 23 369 -11 q 162 117 216 57 q 80 258 108 176 q 51 434 51 339 q 70 593 51 517 q 123 733 88 668 q 205 849 157 797 q 314 939 253 901 q 444 995 374 976 q 592 1015 514 1015 q 764 981 688 1015 q 894 888 840 947 q 976 746 947 828 q 1004 569 1004 665 m 819 565 q 802 689 819 633 q 753 784 785 744 q 674 845 721 824 q 569 867 628 867 q 433 836 494 867 q 328 749 372 806 q 260 614 284 693 q 236 438 236 535 q 253 315 236 370 q 301 220 269 259 q 380 159 333 181 q 485 138 426 138 q 622 169 560 138 q 728 255 684 199 q 795 389 772 310 q 819 565 819 468 m 551 1157 q 544 1125 551 1140 q 526 1099 538 1110 q 499 1082 515 1088 q 466 1075 483 1075 q 434 1082 449 1075 q 408 1099 419 1088 q 390 1125 397 1110 q 383 1157 383 1140 q 390 1190 383 1174 q 408 1217 397 1206 q 434 1235 419 1228 q 466 1242 449 1242 q 499 1235 483 1242 q 526 1217 515 1228 q 544 1190 538 1206 q 551 1157 551 1174 m 795 1157 q 789 1125 795 1140 q 770 1099 782 1110 q 744 1082 759 1088 q 711 1075 728 1075 q 679 1082 694 1075 q 652 1099 664 1088 q 634 1125 641 1110 q 628 1157 628 1140 q 634 1190 628 1174 q 652 1217 641 1206 q 679 1235 664 1228 q 711 1242 694 1242 q 744 1235 728 1242 q 770 1217 759 1228 q 789 1190 782 1206 q 795 1157 795 1174 z "},"×":{"ha":806,"x_min":62,"x_max":760,"o":"m 760 694 l 504 467 l 713 229 l 615 142 l 406 380 l 138 141 l 62 228 l 330 467 l 130 695 l 228 782 l 428 553 l 683 781 l 760 694 z "},"Ø":{"ha":1017,"x_min":15,"x_max":1042,"o":"m 1004 569 q 986 411 1004 486 q 933 271 967 335 q 850 154 899 206 q 742 65 802 102 q 612 9 682 28 q 465 -11 542 -11 q 348 3 401 -11 q 249 44 294 18 l 191 -28 q 140 -67 169 -56 q 86 -77 112 -77 l 15 -77 l 165 113 q 81 255 110 173 q 51 434 51 337 q 70 593 51 517 q 123 733 88 668 q 205 849 157 797 q 314 939 253 901 q 444 995 374 976 q 592 1015 514 1015 q 719 998 660 1015 q 825 947 777 980 l 870 1004 q 888 1025 880 1017 q 905 1039 897 1033 q 925 1046 914 1044 q 950 1049 935 1049 l 1042 1049 l 904 874 q 978 737 953 815 q 1004 569 1004 660 m 236 438 q 247 338 236 383 q 278 255 258 292 l 722 816 q 653 853 691 840 q 569 867 615 867 q 433 836 494 867 q 328 749 372 806 q 260 614 284 693 q 236 438 236 535 m 819 565 q 811 652 819 612 q 788 727 803 693 l 351 174 q 485 138 408 138 q 622 169 560 138 q 728 255 684 199 q 795 389 772 310 q 819 565 819 468 z "},"Ù":{"ha":929,"x_min":83,"x_max":933,"o":"m 441 144 q 530 163 490 144 q 601 215 571 181 q 652 296 632 249 q 678 401 672 343 l 753 1004 l 933 1004 l 859 401 q 812 236 848 312 q 719 106 776 160 q 587 20 663 51 q 422 -11 512 -11 q 278 14 341 -11 q 171 85 215 40 q 105 195 128 131 q 83 335 83 258 q 87 401 83 366 l 160 1004 l 340 1004 l 266 401 q 264 376 265 388 q 263 351 263 363 q 275 266 263 304 q 309 201 286 228 q 365 159 331 174 q 441 144 398 144 m 482 1242 q 504 1241 495 1242 q 520 1236 513 1240 q 533 1228 527 1233 q 547 1215 539 1224 l 653 1075 l 513 1075 q 484 1081 494 1075 q 460 1099 474 1087 l 298 1242 l 482 1242 z "},"Ú":{"ha":929,"x_min":83,"x_max":933,"o":"m 441 144 q 530 163 490 144 q 601 215 571 181 q 652 296 632 249 q 678 401 672 343 l 753 1004 l 933 1004 l 859 401 q 812 236 848 312 q 719 106 776 160 q 587 20 663 51 q 422 -11 512 -11 q 278 14 341 -11 q 171 85 215 40 q 105 195 128 131 q 83 335 83 258 q 87 401 83 366 l 160 1004 l 340 1004 l 266 401 q 264 376 265 388 q 263 351 263 363 q 275 266 263 304 q 309 201 286 228 q 365 159 331 174 q 441 144 398 144 m 839 1242 l 642 1099 q 610 1081 626 1087 q 577 1075 595 1075 l 443 1075 l 585 1215 q 600 1229 593 1224 q 616 1237 608 1234 q 633 1241 624 1240 q 656 1242 642 1242 l 839 1242 z "},"Û":{"ha":929,"x_min":83,"x_max":933,"o":"m 441 144 q 530 163 490 144 q 601 215 571 181 q 652 296 632 249 q 678 401 672 343 l 753 1004 l 933 1004 l 859 401 q 812 236 848 312 q 719 106 776 160 q 587 20 663 51 q 422 -11 512 -11 q 278 14 341 -11 q 171 85 215 40 q 105 195 128 131 q 83 335 83 258 q 87 401 83 366 l 160 1004 l 340 1004 l 266 401 q 264 376 265 388 q 263 351 263 363 q 275 266 263 304 q 309 201 286 228 q 365 159 331 174 q 441 144 398 144 m 790 1075 l 665 1075 q 644 1078 655 1075 q 626 1086 633 1082 l 571 1135 q 566 1139 569 1137 q 561 1144 563 1142 l 550 1135 l 483 1086 q 463 1078 475 1081 q 440 1075 451 1075 l 316 1075 l 489 1226 l 654 1226 l 790 1075 z "},"Ü":{"ha":929,"x_min":83,"x_max":933,"o":"m 441 144 q 530 163 490 144 q 601 215 571 181 q 652 296 632 249 q 678 401 672 343 l 753 1004 l 933 1004 l 859 401 q 812 236 848 312 q 719 106 776 160 q 587 20 663 51 q 422 -11 512 -11 q 278 14 341 -11 q 171 85 215 40 q 105 195 128 131 q 83 335 83 258 q 87 401 83 366 l 160 1004 l 340 1004 l 266 401 q 264 376 265 388 q 263 351 263 363 q 275 266 263 304 q 309 201 286 228 q 365 159 331 174 q 441 144 398 144 m 510 1156 q 503 1125 510 1140 q 485 1099 497 1110 q 458 1081 474 1088 q 425 1074 442 1074 q 393 1081 408 1074 q 367 1099 378 1088 q 349 1125 356 1110 q 342 1156 342 1140 q 349 1189 342 1174 q 367 1216 356 1205 q 393 1234 378 1228 q 425 1241 408 1241 q 458 1234 442 1241 q 485 1216 474 1228 q 503 1189 497 1205 q 510 1156 510 1174 m 754 1156 q 748 1125 754 1140 q 730 1099 741 1110 q 703 1081 718 1088 q 670 1074 688 1074 q 638 1081 653 1074 q 611 1099 623 1088 q 593 1125 600 1110 q 587 1156 587 1140 q 593 1189 587 1174 q 611 1216 600 1205 q 638 1234 623 1228 q 670 1241 653 1241 q 703 1234 688 1241 q 730 1216 718 1228 q 748 1189 741 1205 q 754 1156 754 1174 z "},"Ý":{"ha":842,"x_min":76,"x_max":929,"o":"m 517 391 l 469 0 l 288 0 l 337 392 l 76 1004 l 236 1004 q 272 993 260 1004 q 292 963 285 981 l 422 616 q 437 567 431 591 q 447 520 443 543 q 471 567 458 543 q 500 616 484 590 l 716 963 q 741 992 726 979 q 780 1004 757 1004 l 929 1004 l 517 391 m 810 1241 l 613 1098 q 581 1080 597 1086 q 548 1074 566 1074 l 414 1074 l 556 1215 q 571 1228 564 1223 q 586 1236 578 1233 q 604 1240 594 1239 q 627 1241 613 1241 l 810 1241 z "},"Þ":{"ha":802,"x_min":95,"x_max":828,"o":"m 377 829 l 503 829 q 649 809 588 829 q 750 752 710 788 q 809 665 790 715 q 828 555 828 615 q 803 406 828 474 q 727 288 778 338 q 600 210 676 238 q 423 183 524 183 l 297 183 l 274 0 l 95 0 l 218 1004 l 399 1004 l 377 829 m 360 690 l 314 322 l 441 322 q 533 338 494 322 q 598 383 572 354 q 635 452 623 412 q 647 540 647 492 q 638 601 647 574 q 608 649 628 629 q 557 679 588 668 q 485 690 527 690 l 360 690 z "},"ß":{"ha":804,"x_min":31,"x_max":781,"o":"m 526 1021 q 645 1000 597 1021 q 724 947 694 978 q 767 877 754 915 q 781 806 781 840 q 766 728 781 760 q 729 672 751 696 q 681 632 707 649 q 633 599 655 615 q 596 566 611 583 q 581 526 581 549 q 595 489 581 505 q 630 459 609 474 q 675 428 651 444 q 721 389 700 412 q 756 334 742 366 q 769 258 769 303 q 745 142 769 192 q 682 58 722 92 q 591 6 642 24 q 485 -11 540 -11 q 427 -5 456 -11 q 374 14 399 2 q 327 42 349 26 q 288 76 305 58 l 334 140 q 353 156 342 150 q 379 163 364 163 q 406 153 394 163 q 433 133 419 144 q 467 113 448 122 q 513 104 485 104 q 551 113 533 104 q 583 136 569 121 q 603 171 596 151 q 611 214 611 191 q 596 262 611 242 q 557 298 581 282 q 507 329 534 314 q 457 364 481 344 q 419 410 434 383 q 403 477 403 437 q 419 556 403 524 q 460 612 435 588 q 512 656 484 636 q 564 695 540 675 q 604 741 588 716 q 620 801 620 765 q 614 839 620 820 q 593 870 607 857 q 557 892 579 884 q 504 901 535 901 q 428 877 463 901 q 369 814 394 853 q 327 724 344 775 q 304 619 310 674 l 233 29 l 197 -101 q 167 -153 188 -135 q 109 -172 147 -172 l 40 -172 l 132 584 l 69 595 q 41 607 51 599 q 31 631 31 615 l 39 704 l 154 704 q 208 824 173 767 q 291 925 243 881 q 398 995 339 969 q 526 1021 458 1021 z "},"à":{"ha":719,"x_min":26,"x_max":682,"o":"m 596 0 l 506 0 q 462 15 474 0 q 449 51 449 29 l 455 149 q 349 32 408 75 q 219 -10 290 -10 q 143 6 178 -10 q 82 53 108 22 q 41 132 56 85 q 26 244 26 180 q 42 368 26 308 q 88 482 58 428 q 159 579 117 535 q 252 656 201 624 q 364 705 304 688 q 491 723 424 723 q 587 716 539 723 q 682 691 635 709 l 596 0 m 286 130 q 342 149 315 130 q 394 203 369 169 q 439 284 418 238 q 475 384 460 331 l 502 599 q 467 601 483 601 q 360 575 410 601 q 275 504 311 549 q 218 400 239 459 q 198 274 198 340 q 222 165 198 199 q 286 130 245 130 m 444 1015 q 482 1006 470 1015 q 501 978 494 997 l 571 810 l 476 810 q 447 815 458 810 q 426 833 435 819 l 288 1015 l 444 1015 z "},"á":{"ha":719,"x_min":26,"x_max":722,"o":"m 596 0 l 506 0 q 462 15 474 0 q 449 51 449 29 l 455 149 q 349 32 408 75 q 219 -10 290 -10 q 143 6 178 -10 q 82 53 108 22 q 41 132 56 85 q 26 244 26 180 q 42 368 26 308 q 88 482 58 428 q 159 579 117 535 q 252 656 201 624 q 364 705 304 688 q 491 723 424 723 q 587 716 539 723 q 682 691 635 709 l 596 0 m 286 130 q 342 149 315 130 q 394 203 369 169 q 439 284 418 238 q 475 384 460 331 l 502 599 q 467 601 483 601 q 360 575 410 601 q 275 504 311 549 q 218 400 239 459 q 198 274 198 340 q 222 165 198 199 q 286 130 245 130 m 722 1015 l 540 833 q 514 815 526 819 q 483 810 501 810 l 384 810 l 495 978 q 521 1006 507 997 q 562 1015 535 1015 l 722 1015 z "},"â":{"ha":719,"x_min":26,"x_max":692,"o":"m 596 0 l 506 0 q 462 15 474 0 q 449 51 449 29 l 455 149 q 349 32 408 75 q 219 -10 290 -10 q 143 6 178 -10 q 82 53 108 22 q 41 132 56 85 q 26 244 26 180 q 42 368 26 308 q 88 482 58 428 q 159 579 117 535 q 252 656 201 624 q 364 705 304 688 q 491 723 424 723 q 587 716 539 723 q 682 691 635 709 l 596 0 m 286 130 q 342 149 315 130 q 394 203 369 169 q 439 284 418 238 q 475 384 460 331 l 502 599 q 467 601 483 601 q 360 575 410 601 q 275 504 311 549 q 218 400 239 459 q 198 274 198 340 q 222 165 198 199 q 286 130 245 130 m 692 811 l 582 811 q 563 815 572 811 q 550 824 554 819 l 494 892 q 482 906 488 898 q 474 899 478 902 q 467 892 470 895 l 392 824 q 377 815 386 819 q 357 811 367 811 l 242 811 l 413 1003 l 569 1003 l 692 811 z "},"ã":{"ha":719,"x_min":26,"x_max":699,"o":"m 596 0 l 506 0 q 462 15 474 0 q 449 51 449 29 l 455 149 q 349 32 408 75 q 219 -10 290 -10 q 143 6 178 -10 q 82 53 108 22 q 41 132 56 85 q 26 244 26 180 q 42 368 26 308 q 88 482 58 428 q 159 579 117 535 q 252 656 201 624 q 364 705 304 688 q 491 723 424 723 q 587 716 539 723 q 682 691 635 709 l 596 0 m 286 130 q 342 149 315 130 q 394 203 369 169 q 439 284 418 238 q 475 384 460 331 l 502 599 q 467 601 483 601 q 360 575 410 601 q 275 504 311 549 q 218 400 239 459 q 198 274 198 340 q 222 165 198 199 q 286 130 245 130 m 553 941 q 583 953 571 941 q 599 994 594 965 l 699 994 q 681 925 694 956 q 646 873 667 894 q 600 839 626 851 q 544 826 574 826 q 502 835 522 826 q 467 855 483 844 q 438 875 451 866 q 411 884 424 884 q 381 872 393 884 q 366 830 369 859 l 265 830 q 283 899 269 868 q 318 952 297 930 q 365 986 339 974 q 419 999 391 999 q 461 990 442 999 q 497 970 481 981 q 527 950 513 959 q 553 941 540 941 z "},"ä":{"ha":719,"x_min":26,"x_max":706,"o":"m 596 0 l 506 0 q 462 15 474 0 q 449 51 449 29 l 455 149 q 349 32 408 75 q 219 -10 290 -10 q 143 6 178 -10 q 82 53 108 22 q 41 132 56 85 q 26 244 26 180 q 42 368 26 308 q 88 482 58 428 q 159 579 117 535 q 252 656 201 624 q 364 705 304 688 q 491 723 424 723 q 587 716 539 723 q 682 691 635 709 l 596 0 m 286 130 q 342 149 315 130 q 394 203 369 169 q 439 284 418 238 q 475 384 460 331 l 502 599 q 467 601 483 601 q 360 575 410 601 q 275 504 311 549 q 218 400 239 459 q 198 274 198 340 q 222 165 198 199 q 286 130 245 130 m 447 913 q 439 876 447 893 q 418 847 431 859 q 386 827 404 834 q 349 819 369 819 q 313 827 330 819 q 283 847 296 834 q 263 876 270 859 q 255 913 255 893 q 263 950 255 933 q 283 981 270 968 q 313 1002 296 994 q 349 1010 330 1010 q 386 1002 369 1010 q 418 981 404 994 q 439 950 431 968 q 447 913 447 933 m 706 913 q 698 876 706 893 q 677 847 690 859 q 647 827 665 834 q 609 819 629 819 q 572 827 590 819 q 542 847 555 834 q 522 876 529 859 q 514 913 514 893 q 522 950 514 933 q 542 981 529 968 q 572 1002 555 994 q 609 1010 590 1010 q 647 1002 629 1010 q 677 981 665 994 q 698 950 690 968 q 706 913 706 933 z "},"å":{"ha":719,"x_min":26,"x_max":682,"o":"m 596 0 l 506 0 q 462 15 474 0 q 449 51 449 29 l 455 149 q 349 32 408 75 q 219 -10 290 -10 q 143 6 178 -10 q 82 53 108 22 q 41 132 56 85 q 26 244 26 180 q 42 368 26 308 q 88 482 58 428 q 159 579 117 535 q 252 656 201 624 q 364 705 304 688 q 491 723 424 723 q 587 716 539 723 q 682 691 635 709 l 596 0 m 286 130 q 342 149 315 130 q 394 203 369 169 q 439 284 418 238 q 475 384 460 331 l 502 599 q 467 601 483 601 q 360 575 410 601 q 275 504 311 549 q 218 400 239 459 q 198 274 198 340 q 222 165 198 199 q 286 130 245 130 m 339 920 q 351 978 339 952 q 385 1024 364 1005 q 434 1053 406 1042 q 492 1063 462 1063 q 552 1053 524 1063 q 602 1024 581 1042 q 636 978 624 1005 q 649 920 649 952 q 636 863 649 889 q 602 819 624 838 q 552 791 581 801 q 492 781 524 781 q 434 791 462 781 q 385 819 406 801 q 351 863 364 838 q 339 920 339 889 m 432 920 q 448 876 432 894 q 495 858 465 858 q 540 876 523 858 q 556 920 556 894 q 540 966 556 949 q 495 983 523 983 q 448 966 465 983 q 432 920 432 949 z "},"æ":{"ha":1014,"x_min":10,"x_max":996,"o":"m 777 723 q 860 709 822 723 q 926 669 898 694 q 970 611 954 644 q 986 540 986 578 q 979 489 986 515 q 954 439 972 463 q 906 393 936 415 q 831 356 876 372 q 722 329 785 340 q 576 317 659 319 q 613 169 576 215 q 718 122 651 122 q 794 134 765 122 q 846 161 824 147 q 884 188 867 176 q 922 200 901 200 q 938 196 930 200 q 952 185 947 192 l 996 132 q 924 68 959 95 q 852 24 889 41 q 774 -2 815 6 q 684 -10 733 -10 q 561 24 617 -10 q 474 128 506 58 q 420 65 450 92 q 356 22 390 39 q 286 -3 322 5 q 217 -11 251 -11 q 62 33 114 -11 q 10 160 10 77 q 31 252 10 207 q 99 334 51 297 q 229 394 148 370 q 432 422 310 418 q 436 466 435 453 q 438 487 438 478 q 415 567 438 541 q 347 593 392 593 q 284 583 310 593 q 237 561 258 573 q 200 539 217 549 q 163 529 183 529 q 135 538 146 529 q 118 559 124 546 l 95 613 q 224 697 158 669 q 366 725 290 725 q 482 696 439 725 q 545 617 526 667 q 646 695 588 667 q 777 723 704 723 m 419 320 q 298 305 346 317 q 222 275 250 294 q 182 233 193 257 q 170 181 170 209 q 191 122 170 142 q 249 102 211 102 q 307 113 279 102 q 357 147 335 124 q 394 205 378 169 q 415 288 409 240 l 419 320 m 756 603 q 691 590 719 603 q 641 552 663 576 q 605 492 619 527 q 583 415 591 458 q 710 432 661 421 q 788 459 760 444 q 826 493 816 474 q 837 532 837 512 q 817 583 837 563 q 756 603 797 603 z "},"ç":{"ha":605,"x_min":35,"x_max":618,"o":"m 199 -160 q 209 -161 204 -160 q 219 -165 213 -163 q 231 -169 224 -167 q 248 -171 238 -171 q 281 -160 269 -171 q 292 -135 292 -149 q 271 -108 292 -117 q 205 -93 250 -99 l 240 -5 q 153 29 191 4 q 89 91 115 53 q 49 178 63 128 q 35 287 35 228 q 63 452 35 374 q 140 591 90 531 q 259 687 190 651 q 409 723 328 723 q 530 698 480 723 q 618 623 579 673 l 563 558 q 549 546 558 551 q 531 541 541 541 q 510 548 519 541 q 487 564 500 556 q 455 580 474 572 q 406 587 436 587 q 330 565 366 587 q 266 504 294 544 q 223 409 239 465 q 206 286 206 353 q 241 165 206 208 q 335 122 276 122 q 400 134 374 122 q 444 159 426 145 q 477 184 463 172 q 508 195 491 195 q 538 179 526 195 l 582 126 q 523 68 551 92 q 466 28 495 44 q 407 3 438 13 q 342 -8 377 -6 l 330 -40 q 401 -77 381 -53 q 422 -130 422 -100 q 409 -177 422 -156 q 374 -212 397 -198 q 319 -235 351 -227 q 250 -242 288 -242 q 201 -238 224 -242 q 157 -226 179 -234 l 180 -174 q 199 -160 185 -160 z "},"è":{"ha":657,"x_min":34,"x_max":638,"o":"m 638 547 q 618 460 638 499 q 550 389 599 420 q 416 335 501 358 q 201 299 332 313 l 201 290 q 344 122 201 122 q 398 128 374 122 q 439 142 422 134 q 471 161 457 151 q 498 180 485 172 q 522 194 510 188 q 547 200 533 200 q 564 196 556 200 q 578 185 572 192 l 622 132 q 549 68 585 95 q 477 24 514 41 q 399 -2 440 6 q 310 -10 358 -10 q 197 11 247 -10 q 110 70 146 32 q 54 164 74 109 q 34 285 34 218 q 46 396 34 342 q 81 499 58 450 q 138 588 104 547 q 213 659 171 629 q 305 706 255 689 q 413 722 356 722 q 511 706 469 722 q 582 665 553 690 q 624 608 610 640 q 638 547 638 577 m 403 603 q 339 589 369 603 q 285 549 309 574 q 243 487 261 523 q 215 409 226 451 q 354 435 301 421 q 435 465 406 449 q 473 501 464 482 q 483 541 483 519 q 478 563 483 551 q 464 582 474 574 q 440 597 455 591 q 403 603 425 603 m 364 1015 q 402 1006 390 1015 q 422 978 414 997 l 491 810 l 397 810 q 367 815 378 810 q 346 833 356 819 l 208 1015 l 364 1015 z "},"é":{"ha":657,"x_min":34,"x_max":667,"o":"m 638 547 q 618 460 638 499 q 550 389 599 420 q 416 335 501 358 q 201 299 332 313 l 201 290 q 344 122 201 122 q 398 128 374 122 q 439 142 422 134 q 471 161 457 151 q 498 180 485 172 q 522 194 510 188 q 547 200 533 200 q 564 196 556 200 q 578 185 572 192 l 622 132 q 549 68 585 95 q 477 24 514 41 q 399 -2 440 6 q 310 -10 358 -10 q 197 11 247 -10 q 110 70 146 32 q 54 164 74 109 q 34 285 34 218 q 46 396 34 342 q 81 499 58 450 q 138 588 104 547 q 213 659 171 629 q 305 706 255 689 q 413 722 356 722 q 511 706 469 722 q 582 665 553 690 q 624 608 610 640 q 638 547 638 577 m 403 603 q 339 589 369 603 q 285 549 309 574 q 243 487 261 523 q 215 409 226 451 q 354 435 301 421 q 435 465 406 449 q 473 501 464 482 q 483 541 483 519 q 478 563 483 551 q 464 582 474 574 q 440 597 455 591 q 403 603 425 603 m 667 1015 l 485 833 q 459 815 472 819 q 428 810 447 810 l 329 810 l 440 978 q 466 1006 452 997 q 507 1015 481 1015 l 667 1015 z "},"ê":{"ha":657,"x_min":34,"x_max":640,"o":"m 638 547 q 618 460 638 499 q 550 389 599 420 q 416 335 501 358 q 201 299 332 313 l 201 290 q 344 122 201 122 q 398 128 374 122 q 439 142 422 134 q 471 161 457 151 q 498 180 485 172 q 522 194 510 188 q 547 200 533 200 q 564 196 556 200 q 578 185 572 192 l 622 132 q 549 68 585 95 q 477 24 514 41 q 399 -2 440 6 q 310 -10 358 -10 q 197 11 247 -10 q 110 70 146 32 q 54 164 74 109 q 34 285 34 218 q 46 396 34 342 q 81 499 58 450 q 138 588 104 547 q 213 659 171 629 q 305 706 255 689 q 413 722 356 722 q 511 706 469 722 q 582 665 553 690 q 624 608 610 640 q 638 547 638 577 m 403 603 q 339 589 369 603 q 285 549 309 574 q 243 487 261 523 q 215 409 226 451 q 354 435 301 421 q 435 465 406 449 q 473 501 464 482 q 483 541 483 519 q 478 563 483 551 q 464 582 474 574 q 440 597 455 591 q 403 603 425 603 m 640 811 l 530 811 q 511 815 520 811 q 498 824 502 819 l 442 892 q 430 906 436 898 q 422 899 426 902 q 415 892 418 895 l 340 824 q 325 815 334 819 q 305 811 315 811 l 190 811 l 361 1003 l 517 1003 l 640 811 z "},"ë":{"ha":657,"x_min":34,"x_max":653,"o":"m 638 547 q 618 460 638 499 q 550 389 599 420 q 416 335 501 358 q 201 299 332 313 l 201 290 q 344 122 201 122 q 398 128 374 122 q 439 142 422 134 q 471 161 457 151 q 498 180 485 172 q 522 194 510 188 q 547 200 533 200 q 564 196 556 200 q 578 185 572 192 l 622 132 q 549 68 585 95 q 477 24 514 41 q 399 -2 440 6 q 310 -10 358 -10 q 197 11 247 -10 q 110 70 146 32 q 54 164 74 109 q 34 285 34 218 q 46 396 34 342 q 81 499 58 450 q 138 588 104 547 q 213 659 171 629 q 305 706 255 689 q 413 722 356 722 q 511 706 469 722 q 582 665 553 690 q 624 608 610 640 q 638 547 638 577 m 403 603 q 339 589 369 603 q 285 549 309 574 q 243 487 261 523 q 215 409 226 451 q 354 435 301 421 q 435 465 406 449 q 473 501 464 482 q 483 541 483 519 q 478 563 483 551 q 464 582 474 574 q 440 597 455 591 q 403 603 425 603 m 394 913 q 387 876 394 893 q 366 847 379 859 q 334 827 352 834 q 297 819 317 819 q 261 827 278 819 q 231 847 244 834 q 210 876 218 859 q 203 913 203 893 q 210 950 203 933 q 231 981 218 968 q 261 1002 244 994 q 297 1010 278 1010 q 334 1002 317 1010 q 366 981 352 994 q 387 950 379 968 q 394 913 394 933 m 653 913 q 646 876 653 893 q 625 847 638 859 q 595 827 613 834 q 557 819 577 819 q 520 827 538 819 q 490 847 503 834 q 469 876 477 859 q 462 913 462 893 q 469 950 462 933 q 490 981 477 968 q 520 1002 503 994 q 557 1010 538 1010 q 595 1002 577 1010 q 625 981 613 994 q 646 950 638 968 q 653 913 653 933 z "},"ì":{"ha":358,"x_min":23,"x_max":306,"o":"m 306 713 l 221 0 l 51 0 l 137 713 l 306 713 m 178 1015 q 217 1006 205 1015 q 236 978 228 997 l 306 810 l 211 810 q 182 815 193 810 q 160 833 170 819 l 23 1015 l 178 1015 z "},"í":{"ha":358,"x_min":51,"x_max":481,"o":"m 306 713 l 221 0 l 51 0 l 137 713 l 306 713 m 481 1015 l 299 833 q 273 815 285 819 q 242 810 260 810 l 143 810 l 254 978 q 280 1006 266 997 q 321 1015 294 1015 l 481 1015 z "},"î":{"ha":358,"x_min":4,"x_max":453,"o":"m 306 713 l 221 0 l 51 0 l 137 713 l 306 713 m 453 811 l 344 811 q 325 815 334 811 q 312 824 316 819 l 256 892 q 244 906 250 898 q 236 899 240 902 q 228 892 232 895 l 153 824 q 139 815 148 819 q 119 811 129 811 l 4 811 l 175 1003 l 331 1003 l 453 811 z "},"ï":{"ha":358,"x_min":17,"x_max":467,"o":"m 306 713 l 221 0 l 51 0 l 137 713 l 306 713 m 208 913 q 201 876 208 893 q 180 847 193 859 q 148 827 166 834 q 110 819 131 819 q 75 827 92 819 q 45 847 58 834 q 24 876 32 859 q 17 913 17 893 q 24 950 17 933 q 45 981 32 968 q 75 1002 58 994 q 110 1010 92 1010 q 148 1002 131 1010 q 180 981 166 994 q 201 950 193 968 q 208 913 208 933 m 467 913 q 460 876 467 893 q 439 847 452 859 q 409 827 426 834 q 371 819 391 819 q 334 827 351 819 q 304 847 317 834 q 283 876 291 859 q 276 913 276 893 q 283 950 276 933 q 304 981 291 968 q 334 1002 317 994 q 371 1010 351 1010 q 409 1002 391 1010 q 439 981 426 994 q 460 950 452 968 q 467 913 467 933 z "},"ð":{"ha":726,"x_min":35,"x_max":699,"o":"m 299 736 q 294 753 294 744 q 308 778 294 769 l 389 831 q 284 872 342 855 q 250 909 250 883 q 258 940 250 923 l 283 992 q 408 958 349 981 q 517 899 467 935 l 644 978 l 672 924 q 677 906 677 914 q 660 877 677 889 l 589 832 q 670 692 641 773 q 699 504 699 610 q 673 291 699 386 q 598 129 647 196 q 475 26 548 62 q 310 -10 403 -10 q 199 10 250 -10 q 112 68 149 30 q 55 160 76 106 q 35 281 35 214 q 60 422 35 356 q 130 538 85 488 q 236 617 175 588 q 369 647 297 647 q 484 620 435 647 q 567 542 534 594 q 542 674 564 617 q 474 774 519 731 l 330 681 l 299 736 m 331 116 q 398 130 366 116 q 457 177 431 144 q 504 263 484 210 q 535 392 524 315 q 517 442 528 418 q 487 483 505 465 q 445 510 469 500 q 388 521 420 521 q 309 503 344 521 q 249 453 274 485 q 212 380 225 422 q 199 289 199 338 q 209 216 199 248 q 236 161 219 183 q 278 127 253 139 q 331 116 302 116 z "},"ñ":{"ha":748,"x_min":36,"x_max":692,"o":"m 36 0 l 122 713 l 209 713 q 251 700 236 713 q 266 658 266 687 l 261 565 q 381 684 315 645 q 517 724 447 724 q 589 709 557 724 q 644 668 622 695 q 680 600 667 640 q 692 508 692 560 q 691 482 692 495 q 689 453 690 468 l 635 0 l 464 0 q 488 199 478 117 q 503 335 497 281 q 513 420 510 389 q 518 467 517 451 q 520 488 520 483 q 521 497 521 493 q 504 563 521 542 q 452 583 488 583 q 393 567 424 583 q 335 519 363 550 q 284 446 307 489 q 247 350 261 403 l 208 0 l 36 0 m 527 942 q 557 954 545 942 q 574 996 569 966 l 674 996 q 655 927 669 958 q 620 874 641 896 q 574 840 600 852 q 519 828 548 828 q 477 837 496 828 q 442 857 458 846 q 412 876 426 867 q 385 885 398 885 q 356 873 367 885 q 340 831 344 860 l 239 831 q 258 900 244 869 q 292 953 272 931 q 339 988 313 976 q 394 1000 365 1000 q 436 991 417 1000 q 471 971 455 982 q 501 951 488 960 q 527 942 515 942 z "},"ò":{"ha":708,"x_min":30,"x_max":679,"o":"m 319 122 q 397 146 363 122 q 457 212 432 171 q 494 308 481 253 q 508 424 508 363 q 478 551 508 510 q 389 592 449 592 q 311 568 346 592 q 252 502 276 544 q 215 406 228 460 q 201 290 201 351 q 231 162 201 203 q 319 122 260 122 m 304 -10 q 195 9 245 -10 q 108 67 144 29 q 51 161 72 106 q 30 288 30 217 q 59 460 30 381 q 140 599 89 540 q 259 690 191 657 q 404 724 327 724 q 514 704 463 724 q 601 646 564 684 q 658 552 638 608 q 679 425 679 497 q 649 254 679 333 q 568 116 619 174 q 449 23 517 57 q 304 -10 381 -10 m 356 1016 q 394 1007 383 1016 q 414 980 406 998 l 483 811 l 389 811 q 359 816 371 811 q 338 835 348 821 l 201 1016 l 356 1016 z "},"ó":{"ha":708,"x_min":30,"x_max":679,"o":"m 319 122 q 397 146 363 122 q 457 212 432 171 q 494 308 481 253 q 508 424 508 363 q 478 551 508 510 q 389 592 449 592 q 311 568 346 592 q 252 502 276 544 q 215 406 228 460 q 201 290 201 351 q 231 162 201 203 q 319 122 260 122 m 304 -10 q 195 9 245 -10 q 108 67 144 29 q 51 161 72 106 q 30 288 30 217 q 59 460 30 381 q 140 599 89 540 q 259 690 191 657 q 404 724 327 724 q 514 704 463 724 q 601 646 564 684 q 658 552 638 608 q 679 425 679 497 q 649 254 679 333 q 568 116 619 174 q 449 23 517 57 q 304 -10 381 -10 m 660 1016 l 478 835 q 451 816 464 821 q 420 811 439 811 l 322 811 l 433 980 q 459 1007 444 998 q 499 1016 473 1016 l 660 1016 z "},"ô":{"ha":708,"x_min":30,"x_max":679,"o":"m 319 122 q 397 146 363 122 q 457 212 432 171 q 494 308 481 253 q 508 424 508 363 q 478 551 508 510 q 389 592 449 592 q 311 568 346 592 q 252 502 276 544 q 215 406 228 460 q 201 290 201 351 q 231 162 201 203 q 319 122 260 122 m 304 -10 q 195 9 245 -10 q 108 67 144 29 q 51 161 72 106 q 30 288 30 217 q 59 460 30 381 q 140 599 89 540 q 259 690 191 657 q 404 724 327 724 q 514 704 463 724 q 601 646 564 684 q 658 552 638 608 q 679 425 679 497 q 649 254 679 333 q 568 116 619 174 q 449 23 517 57 q 304 -10 381 -10 m 632 813 l 522 813 q 503 816 513 813 q 490 825 494 820 l 434 894 q 422 908 428 899 q 414 900 418 903 q 407 894 410 897 l 332 825 q 317 816 326 820 q 297 813 308 813 l 183 813 l 353 1005 l 509 1005 l 632 813 z "},"õ":{"ha":708,"x_min":30,"x_max":679,"o":"m 319 122 q 397 146 363 122 q 457 212 432 171 q 494 308 481 253 q 508 424 508 363 q 478 551 508 510 q 389 592 449 592 q 311 568 346 592 q 252 502 276 544 q 215 406 228 460 q 201 290 201 351 q 231 162 201 203 q 319 122 260 122 m 304 -10 q 195 9 245 -10 q 108 67 144 29 q 51 161 72 106 q 30 288 30 217 q 59 460 30 381 q 140 599 89 540 q 259 690 191 657 q 404 724 327 724 q 514 704 463 724 q 601 646 564 684 q 658 552 638 608 q 679 425 679 497 q 649 254 679 333 q 568 116 619 174 q 449 23 517 57 q 304 -10 381 -10 m 493 942 q 523 954 511 942 q 540 996 535 966 l 640 996 q 621 927 635 958 q 586 874 607 896 q 540 840 566 852 q 485 828 514 828 q 443 837 462 828 q 408 857 424 846 q 378 876 392 867 q 351 885 364 885 q 322 873 333 885 q 306 831 310 860 l 205 831 q 224 900 210 869 q 258 953 238 931 q 305 988 279 976 q 360 1000 331 1000 q 402 991 383 1000 q 437 971 421 982 q 467 951 453 960 q 493 942 481 942 z "},"ö":{"ha":708,"x_min":30,"x_max":679,"o":"m 319 122 q 397 146 363 122 q 457 212 432 171 q 494 308 481 253 q 508 424 508 363 q 478 551 508 510 q 389 592 449 592 q 311 568 346 592 q 252 502 276 544 q 215 406 228 460 q 201 290 201 351 q 231 162 201 203 q 319 122 260 122 m 304 -10 q 195 9 245 -10 q 108 67 144 29 q 51 161 72 106 q 30 288 30 217 q 59 460 30 381 q 140 599 89 540 q 259 690 191 657 q 404 724 327 724 q 514 704 463 724 q 601 646 564 684 q 658 552 638 608 q 679 425 679 497 q 649 254 679 333 q 568 116 619 174 q 449 23 517 57 q 304 -10 381 -10 m 387 914 q 379 877 387 894 q 358 848 372 860 q 327 828 344 835 q 289 821 309 821 q 253 828 270 821 q 223 848 236 835 q 203 877 210 860 q 195 914 195 894 q 203 952 195 934 q 223 983 210 969 q 253 1003 236 996 q 289 1011 270 1011 q 327 1003 309 1011 q 358 983 344 996 q 379 952 372 969 q 387 914 387 934 m 646 914 q 638 877 646 894 q 618 848 631 860 q 587 828 605 835 q 549 821 569 821 q 513 828 530 821 q 482 848 495 835 q 462 877 469 860 q 454 914 454 894 q 462 952 454 934 q 482 983 469 969 q 513 1003 495 996 q 549 1011 530 1011 q 587 1003 569 1011 q 618 983 605 996 q 638 952 631 969 q 646 914 646 934 z "},"÷":{"ha":806,"x_min":72,"x_max":764,"o":"m 88 528 l 764 528 l 749 405 l 72 405 l 88 528 m 344 701 q 354 746 344 725 q 379 782 363 767 q 416 807 394 798 q 460 816 437 816 q 497 809 480 816 q 526 789 514 801 q 544 760 538 776 q 551 724 551 743 q 542 679 551 699 q 516 643 533 658 q 479 620 500 628 q 435 611 458 611 q 398 618 415 611 q 369 637 381 625 q 351 666 358 649 q 344 701 344 683 m 283 207 q 293 251 283 231 q 318 288 302 272 q 355 313 333 303 q 399 322 376 322 q 436 314 419 322 q 465 294 453 307 q 483 265 476 282 q 490 229 490 249 q 481 184 490 205 q 455 149 472 164 q 418 125 439 134 q 374 117 397 117 q 337 124 354 117 q 308 143 320 131 q 290 172 297 155 q 283 207 283 188 z "},"ø":{"ha":708,"x_min":-11,"x_max":719,"o":"m 304 -10 q 162 25 223 -10 l 155 16 q 107 -23 135 -12 q 52 -34 79 -34 l -11 -34 l 84 96 q 44 181 58 133 q 30 288 30 228 q 59 460 30 381 q 140 599 89 540 q 259 690 191 657 q 404 724 327 724 q 547 688 485 724 l 556 700 q 573 721 565 713 q 590 735 581 730 q 608 743 598 741 q 634 746 619 746 l 719 746 l 624 617 q 665 532 651 580 q 679 425 679 484 q 649 254 679 333 q 568 116 619 174 q 449 23 517 57 q 304 -10 381 -10 m 190 290 q 196 226 190 256 l 455 583 q 389 603 426 603 q 309 580 346 603 q 247 516 273 557 q 205 417 220 474 q 190 290 190 359 m 319 110 q 399 134 363 110 q 462 199 435 157 q 503 298 488 240 q 518 424 518 355 q 517 456 518 440 q 513 485 515 471 l 253 129 q 319 110 281 110 z "},"ù":{"ha":747,"x_min":56,"x_max":712,"o":"m 284 713 q 260 514 270 595 q 244 378 251 433 q 235 293 238 324 q 230 246 231 262 q 227 224 228 230 q 227 215 227 219 q 244 150 227 169 q 296 130 261 130 q 352 145 323 130 q 407 188 381 160 q 457 255 434 215 q 496 343 480 294 l 540 713 l 712 713 l 626 0 l 539 0 q 516 3 527 0 q 497 13 506 6 q 483 28 488 19 q 478 51 478 38 l 478 54 l 482 141 q 364 27 428 65 q 231 -10 299 -10 q 159 4 191 -10 q 103 45 126 18 q 68 112 81 72 q 56 203 56 152 q 56 231 56 217 q 59 260 57 245 l 113 713 l 284 713 m 368 1016 q 406 1007 394 1016 q 426 980 418 998 l 495 811 l 401 811 q 371 816 383 811 q 350 835 360 821 l 213 1016 l 368 1016 z "},"ú":{"ha":747,"x_min":56,"x_max":712,"o":"m 284 713 q 260 514 270 595 q 244 378 251 433 q 235 293 238 324 q 230 246 231 262 q 227 224 228 230 q 227 215 227 219 q 244 150 227 169 q 296 130 261 130 q 352 145 323 130 q 407 188 381 160 q 457 255 434 215 q 496 343 480 294 l 540 713 l 712 713 l 626 0 l 539 0 q 516 3 527 0 q 497 13 506 6 q 483 28 488 19 q 478 51 478 38 l 478 54 l 482 141 q 364 27 428 65 q 231 -10 299 -10 q 159 4 191 -10 q 103 45 126 18 q 68 112 81 72 q 56 203 56 152 q 56 231 56 217 q 59 260 57 245 l 113 713 l 284 713 m 672 1016 l 490 835 q 463 816 476 821 q 432 811 451 811 l 333 811 l 444 980 q 470 1007 456 998 q 511 1016 485 1016 l 672 1016 z "},"û":{"ha":747,"x_min":56,"x_max":712,"o":"m 284 713 q 260 514 270 595 q 244 378 251 433 q 235 293 238 324 q 230 246 231 262 q 227 224 228 230 q 227 215 227 219 q 244 150 227 169 q 296 130 261 130 q 352 145 323 130 q 407 188 381 160 q 457 255 434 215 q 496 343 480 294 l 540 713 l 712 713 l 626 0 l 539 0 q 516 3 527 0 q 497 13 506 6 q 483 28 488 19 q 478 51 478 38 l 478 54 l 482 141 q 364 27 428 65 q 231 -10 299 -10 q 159 4 191 -10 q 103 45 126 18 q 68 112 81 72 q 56 203 56 152 q 56 231 56 217 q 59 260 57 245 l 113 713 l 284 713 m 644 813 l 534 813 q 515 816 524 813 q 502 825 506 820 l 446 894 q 434 908 440 899 q 426 900 430 903 q 419 894 422 897 l 344 825 q 329 816 338 820 q 309 813 319 813 l 194 813 l 365 1005 l 521 1005 l 644 813 z "},"ü":{"ha":747,"x_min":56,"x_max":712,"o":"m 284 713 q 260 514 270 595 q 244 378 251 433 q 235 293 238 324 q 230 246 231 262 q 227 224 228 230 q 227 215 227 219 q 244 150 227 169 q 296 130 261 130 q 352 145 323 130 q 407 188 381 160 q 457 255 434 215 q 496 343 480 294 l 540 713 l 712 713 l 626 0 l 539 0 q 516 3 527 0 q 497 13 506 6 q 483 28 488 19 q 478 51 478 38 l 478 54 l 482 141 q 364 27 428 65 q 231 -10 299 -10 q 159 4 191 -10 q 103 45 126 18 q 68 112 81 72 q 56 203 56 152 q 56 231 56 217 q 59 260 57 245 l 113 713 l 284 713 m 399 914 q 391 877 399 894 q 370 848 383 860 q 339 828 356 835 q 301 821 321 821 q 265 828 282 821 q 235 848 248 835 q 215 877 222 860 q 207 914 207 894 q 215 952 207 934 q 235 983 222 969 q 265 1003 248 996 q 301 1011 282 1011 q 339 1003 321 1011 q 370 983 356 996 q 391 952 383 969 q 399 914 399 934 m 658 914 q 650 877 658 894 q 630 848 642 860 q 599 828 617 835 q 561 821 581 821 q 524 828 542 821 q 494 848 507 835 q 474 877 481 860 q 466 914 466 894 q 474 952 466 934 q 494 983 481 969 q 524 1003 507 996 q 561 1011 542 1011 q 599 1003 581 1011 q 630 983 617 996 q 650 952 642 969 q 658 914 658 934 z "},"ý":{"ha":690,"x_min":53,"x_max":728,"o":"m 258 -197 q 202 -233 240 -233 l 75 -233 l 233 54 l 53 713 l 197 713 q 225 703 216 713 q 238 681 235 694 l 326 311 q 332 276 330 293 q 336 240 335 258 q 352 276 344 258 q 368 312 360 294 l 544 681 q 564 704 551 695 q 591 713 577 713 l 728 713 l 258 -197 m 651 1016 l 469 835 q 442 816 455 821 q 411 811 430 811 l 313 811 l 424 980 q 450 1007 435 998 q 490 1016 464 1016 l 651 1016 z "},"þ":{"ha":742,"x_min":13,"x_max":717,"o":"m 13 -233 l 167 1032 l 336 1032 l 279 572 q 391 683 329 642 q 522 724 452 724 q 602 707 566 724 q 664 658 638 691 q 703 576 690 626 q 717 458 717 526 q 705 340 717 398 q 669 229 692 281 q 615 133 647 177 q 544 58 583 90 q 461 8 506 26 q 370 -10 417 -10 q 283 7 322 -10 q 215 54 244 24 l 188 -176 q 167 -215 185 -198 q 119 -233 149 -233 l 13 -233 m 454 589 q 398 570 426 589 q 342 517 369 551 q 291 439 315 484 q 251 341 267 393 l 229 166 q 283 131 253 141 q 344 120 314 120 q 427 149 390 120 q 491 223 465 177 q 533 326 518 269 q 547 441 547 383 q 523 552 547 516 q 454 589 498 589 z "},"ÿ":{"ha":690,"x_min":53,"x_max":728,"o":"m 258 -197 q 202 -233 240 -233 l 75 -233 l 233 54 l 53 713 l 197 713 q 225 703 216 713 q 238 681 235 694 l 326 311 q 332 276 330 293 q 336 240 335 258 q 352 276 344 258 q 368 312 360 294 l 544 681 q 564 704 551 695 q 591 713 577 713 l 728 713 l 258 -197 m 378 914 q 370 877 378 894 q 349 848 363 860 q 318 828 335 835 q 280 821 300 821 q 244 828 261 821 q 214 848 227 835 q 194 877 201 860 q 186 914 186 894 q 194 952 186 934 q 214 983 201 969 q 244 1003 227 996 q 280 1011 261 1011 q 318 1003 300 1011 q 349 983 335 996 q 370 952 363 969 q 378 914 378 934 m 637 914 q 629 877 637 894 q 609 848 622 860 q 578 828 596 835 q 540 821 560 821 q 503 828 521 821 q 473 848 486 835 q 453 877 460 860 q 445 914 445 894 q 453 952 445 934 q 473 983 460 969 q 503 1003 486 996 q 540 1011 521 1011 q 578 1003 560 1011 q 609 983 596 996 q 629 952 622 969 q 637 914 637 934 z "},"ı":{"ha":358,"x_min":51,"x_max":306,"o":"m 306 713 l 221 0 l 51 0 l 137 713 l 306 713 z "},"Œ":{"ha":1375,"x_min":51,"x_max":1403,"o":"m 1403 1004 l 1385 860 l 981 860 l 946 574 l 1263 574 l 1246 436 l 929 436 l 894 144 l 1297 144 l 1279 0 l 715 0 l 730 120 q 590 24 669 58 q 418 -10 511 -10 q 265 23 333 -10 q 149 115 197 56 q 77 253 102 173 q 51 427 51 333 q 68 588 51 511 q 116 729 85 664 q 192 847 147 794 q 291 938 236 900 q 409 995 345 975 q 543 1015 473 1015 q 707 975 637 1015 q 822 866 776 935 l 839 1004 l 1403 1004 m 760 572 q 746 694 760 639 q 705 789 732 749 q 637 850 677 828 q 544 872 597 872 q 418 840 474 872 q 320 750 361 808 q 258 610 280 692 q 236 431 236 529 q 250 310 236 365 q 292 215 265 255 q 360 154 319 176 q 453 133 401 133 q 580 165 523 133 q 676 255 636 197 q 739 393 717 313 q 760 572 760 474 z "},"œ":{"ha":1081,"x_min":28,"x_max":1063,"o":"m 854 723 q 940 710 901 723 q 1006 674 978 697 q 1048 617 1033 650 q 1063 544 1063 584 q 1043 459 1063 499 q 976 389 1024 420 q 846 335 928 358 q 638 300 764 313 q 677 165 640 208 q 780 122 715 122 q 856 134 826 122 q 907 161 886 147 q 945 188 928 176 q 983 200 963 200 q 1014 185 1002 200 l 1058 132 q 986 68 1021 95 q 913 24 951 41 q 835 -2 876 6 q 746 -10 794 -10 q 625 23 680 -10 q 538 124 569 56 q 418 25 488 60 q 264 -10 348 -10 q 162 11 206 -10 q 88 67 118 32 q 43 150 58 103 q 28 249 28 197 q 59 454 28 365 q 144 602 91 542 q 267 692 197 662 q 411 723 336 723 q 529 694 480 723 q 606 613 578 665 q 713 694 651 665 q 854 723 775 723 m 305 117 q 375 132 344 117 q 427 174 405 148 q 464 234 449 200 q 488 305 478 268 q 500 378 497 342 q 504 448 504 415 q 477 557 504 518 q 396 595 451 595 q 311 571 349 595 q 248 502 274 547 q 208 396 222 458 q 194 258 194 334 q 200 205 194 231 q 219 160 206 179 q 253 128 232 140 q 305 117 274 117 m 827 604 q 710 553 759 604 q 644 404 661 501 q 782 431 728 415 q 866 463 835 446 q 908 500 897 481 q 919 538 919 519 q 897 584 919 565 q 827 604 875 604 z "},"ˆ":{"ha":410,"x_min":38,"x_max":488,"o":"m 488 811 l 378 811 q 359 815 368 811 q 346 824 350 819 l 290 892 q 278 906 284 898 q 270 899 274 902 q 263 892 266 895 l 188 824 q 173 815 182 819 q 153 811 163 811 l 38 811 l 209 1003 l 365 1003 l 488 811 z "},"˚":{"ha":410,"x_min":121,"x_max":431,"o":"m 121 920 q 133 978 121 952 q 167 1024 146 1005 q 216 1053 188 1042 q 274 1063 244 1063 q 334 1053 306 1063 q 384 1024 363 1042 q 418 978 406 1005 q 431 920 431 952 q 418 863 431 889 q 384 819 406 838 q 334 791 363 801 q 274 781 306 781 q 216 791 244 781 q 167 819 188 801 q 133 863 146 838 q 121 920 121 889 m 214 920 q 230 876 214 894 q 277 858 247 858 q 322 876 305 858 q 338 920 338 894 q 322 966 338 949 q 277 983 305 983 q 230 966 247 983 q 214 920 214 949 z "},"˜":{"ha":410,"x_min":60,"x_max":495,"o":"m 349 941 q 378 953 367 941 q 395 994 390 965 l 495 994 q 476 925 490 956 q 442 873 463 894 q 395 839 422 851 q 340 826 369 826 q 298 835 317 826 q 263 855 279 844 q 233 875 247 866 q 207 884 219 884 q 177 872 189 884 q 162 830 165 859 l 60 830 q 79 899 65 868 q 114 952 93 930 q 161 986 135 974 q 215 999 187 999 q 257 990 238 999 q 293 970 276 981 q 323 950 309 959 q 349 941 336 941 z "},"–":{"ha":729,"x_min":108,"x_max":641,"o":"m 122 474 l 641 474 l 626 356 l 108 356 l 122 474 z "},"—":{"ha":1080,"x_min":108,"x_max":992,"o":"m 122 474 l 992 474 l 977 356 l 108 356 l 122 474 z "},"‘":{"ha":290,"x_min":119,"x_max":337,"o":"m 147 682 q 119 803 119 742 q 161 951 119 880 q 280 1081 203 1022 l 326 1051 q 337 1031 337 1044 q 333 1017 337 1024 q 320 1001 329 1010 q 301 976 312 991 q 281 942 290 961 q 266 900 272 923 q 260 851 260 877 q 264 810 260 831 q 279 765 269 788 q 281 754 281 760 q 274 735 281 744 q 252 721 266 726 l 147 682 z "},"’":{"ha":290,"x_min":90,"x_max":308,"o":"m 281 1060 q 308 939 308 1000 q 267 791 308 862 q 147 660 225 719 l 101 691 q 90 710 90 698 q 94 724 90 718 q 108 740 99 731 q 127 765 116 750 q 147 799 138 780 q 162 842 156 819 q 168 890 168 865 q 164 932 168 910 q 149 976 159 953 q 147 987 147 982 q 154 1007 147 998 q 176 1021 162 1015 l 281 1060 z "},"‚":{"ha":319,"x_min":-6,"x_max":212,"o":"m 184 198 q 212 77 212 138 q 170 -71 212 0 q 51 -201 128 -142 l 4 -171 q -6 -151 -6 -164 q -2 -137 -6 -144 q 11 -122 2 -131 q 30 -97 19 -112 q 50 -62 41 -82 q 65 -20 59 -43 q 72 28 72 3 q 67 70 72 49 q 52 114 63 92 q 50 125 50 120 q 58 145 50 136 q 79 159 65 153 l 184 198 z "},"“":{"ha":505,"x_min":119,"x_max":553,"o":"m 147 682 q 119 803 119 742 q 161 951 119 880 q 280 1081 203 1022 l 326 1051 q 337 1031 337 1044 q 333 1017 337 1024 q 320 1001 329 1010 q 301 976 312 991 q 281 942 290 961 q 266 900 272 923 q 260 851 260 877 q 264 810 260 831 q 279 765 269 788 q 281 754 281 760 q 274 735 281 744 q 252 721 266 726 l 147 682 m 363 682 q 335 803 335 742 q 377 951 335 880 q 496 1081 419 1022 l 542 1051 q 553 1031 553 1044 q 549 1017 553 1024 q 536 1001 545 1010 q 517 976 528 991 q 497 942 506 961 q 482 900 488 923 q 476 851 476 877 q 480 810 476 831 q 495 765 485 788 q 497 754 497 760 q 490 735 497 744 q 468 721 482 726 l 363 682 z "},"”":{"ha":505,"x_min":93,"x_max":526,"o":"m 283 1060 q 311 939 311 1000 q 269 791 311 862 q 150 660 228 719 l 103 691 q 93 710 93 698 q 97 724 93 718 q 110 740 101 731 q 130 765 119 750 q 149 799 140 780 q 165 842 158 819 q 171 890 171 865 q 166 932 171 910 q 151 976 162 953 q 149 987 149 982 q 157 1007 149 998 q 178 1021 165 1015 l 283 1060 m 499 1060 q 526 939 526 1000 q 485 791 526 862 q 365 660 443 719 l 319 691 q 308 710 308 698 q 313 724 308 718 q 326 740 317 731 q 345 765 334 750 q 365 799 356 780 q 380 842 374 819 q 386 890 386 865 q 382 932 386 910 q 367 976 377 953 q 365 987 365 982 q 372 1007 365 998 q 394 1021 380 1015 l 499 1060 z "},"„":{"ha":505,"x_min":-19,"x_max":415,"o":"m 172 198 q 199 77 199 138 q 158 -71 199 0 q 38 -201 116 -142 l -8 -171 q -19 -151 -19 -164 q -15 -137 -19 -144 q -1 -122 -10 -131 q 18 -97 7 -112 q 38 -62 28 -82 q 53 -20 47 -43 q 59 28 59 3 q 55 70 59 49 q 40 114 50 92 q 38 125 38 120 q 45 145 38 136 q 67 159 53 153 l 172 198 m 388 198 q 415 77 415 138 q 374 -71 415 0 q 254 -201 332 -142 l 208 -171 q 197 -151 197 -164 q 201 -137 197 -144 q 215 -122 206 -131 q 234 -97 223 -112 q 253 -62 244 -82 q 269 -20 263 -43 q 275 28 275 3 q 270 70 275 49 q 256 114 266 92 q 253 125 253 120 q 261 145 253 136 q 283 159 269 153 l 388 198 z "},"•":{"ha":806,"x_min":113,"x_max":718,"o":"m 113 412 q 136 529 113 474 q 201 625 160 584 q 297 690 242 667 q 415 714 352 714 q 533 690 478 714 q 629 625 588 667 q 694 529 670 584 q 718 412 718 474 q 694 295 718 350 q 629 200 670 241 q 533 135 588 159 q 415 112 478 112 q 297 135 352 112 q 201 200 242 159 q 136 295 160 241 q 113 412 113 350 z "},"…":{"ha":1053,"x_min":24,"x_max":976,"o":"m 24 94 q 32 135 24 116 q 54 169 40 155 q 87 191 68 183 q 128 199 106 199 q 170 191 151 199 q 203 169 189 183 q 226 135 217 155 q 234 94 234 116 q 226 53 234 72 q 203 20 217 34 q 170 -2 189 6 q 128 -10 151 -10 q 87 -2 106 -10 q 54 20 68 6 q 32 53 40 34 q 24 94 24 72 m 394 94 q 402 135 394 116 q 425 169 410 155 q 458 191 439 183 q 499 199 477 199 q 541 191 522 199 q 574 169 560 183 q 597 135 588 155 q 605 94 605 116 q 597 53 605 72 q 574 20 588 34 q 541 -2 560 6 q 499 -10 522 -10 q 458 -2 477 -10 q 425 20 439 6 q 402 53 410 34 q 394 94 394 72 m 765 94 q 773 135 765 116 q 795 169 781 155 q 828 191 809 183 q 870 199 848 199 q 911 191 892 199 q 945 169 931 183 q 967 135 959 155 q 976 94 976 116 q 967 53 976 72 q 945 20 959 34 q 911 -2 931 6 q 870 -10 892 -10 q 828 -2 848 -10 q 795 20 809 6 q 773 53 781 34 q 765 94 765 72 z "},"‹":{"ha":426,"x_min":84,"x_max":358,"o":"m 84 363 l 88 383 l 285 658 l 336 632 q 358 601 358 623 q 355 585 358 594 q 345 567 351 577 l 239 401 q 213 372 227 384 q 223 360 219 367 q 231 344 227 353 l 297 178 q 303 154 303 165 q 273 113 303 126 l 215 88 l 84 363 z "},"›":{"ha":426,"x_min":78,"x_max":350,"o":"m 350 383 l 348 363 l 150 88 l 99 113 q 78 144 78 123 q 90 178 78 159 l 197 344 q 209 360 203 353 q 222 372 215 367 q 204 401 210 383 l 137 567 q 133 590 133 578 q 163 632 133 618 l 220 658 l 350 383 z "},"⁄":{"ha":465,"x_min":-152,"x_max":663,"o":"m 6 49 q -36 10 -14 20 q -84 0 -58 0 l -152 0 l 499 947 q 542 989 519 974 q 595 1003 565 1003 l 663 1003 l 6 49 z "},"€":{"ha":806,"x_min":30,"x_max":850,"o":"m 63 642 l 152 642 q 220 797 177 728 q 319 914 263 866 q 443 988 375 962 q 588 1013 511 1013 q 747 976 683 1013 q 850 877 811 939 l 784 814 q 769 801 776 806 q 747 795 761 795 q 723 807 733 795 q 695 833 712 819 q 650 859 678 847 q 576 871 623 871 q 422 813 488 871 q 321 642 355 754 l 679 642 l 674 590 q 658 563 672 576 q 622 550 644 550 l 300 550 q 292 467 294 510 l 593 467 l 587 417 q 570 389 585 401 q 535 376 556 376 l 291 376 q 348 194 299 256 q 478 133 397 133 q 538 139 513 133 q 583 156 564 146 q 616 177 602 165 q 642 198 631 188 q 663 214 653 208 q 682 221 672 221 q 694 218 690 221 q 705 210 699 216 l 768 144 q 631 30 710 70 q 453 -10 551 -10 q 313 18 374 -10 q 211 98 252 47 q 147 219 169 149 q 121 376 124 290 l 30 376 l 41 467 l 122 467 q 126 509 124 489 q 131 550 128 530 l 51 550 l 63 642 z "},"™":{"ha":929,"x_min":105,"x_max":947,"o":"m 670 803 q 682 757 678 779 q 693 780 688 769 q 706 803 699 791 l 810 985 q 826 1001 817 999 q 849 1003 835 1003 l 947 1003 l 896 585 l 796 585 l 822 801 q 827 830 824 815 q 838 865 831 844 l 717 654 q 699 636 710 642 q 675 630 688 630 l 659 630 q 636 636 647 630 q 623 654 626 642 l 556 861 q 556 822 556 837 q 555 801 556 808 l 529 585 l 429 585 l 480 1003 l 578 1003 q 601 1001 593 1003 q 613 985 609 999 l 670 803 m 437 1003 l 425 909 l 322 909 l 282 585 l 169 585 l 208 909 l 105 909 l 117 1003 l 437 1003 z "},"−":{"ha":806,"x_min":104,"x_max":732,"o":"m 119 528 l 732 528 l 717 405 l 104 405 l 119 528 z "}}}
